<?xml version="1.0" encoding="utf-8"?>
<!-- Generator: Adobe Illustrator 19.0.0, SVG Export Plug-In . SVG Version: 6.00 Build 0)  -->
<svg version="1.1" id="Livello_1" xmlns="http://www.w3.org/2000/svg" xmlns:xlink="http://www.w3.org/1999/xlink" x="0px" y="0px"
	 viewBox="0 0 556.2 649.2" style="enable-background:new 0 0 556.2 649.2;" xml:space="preserve">
<style type="text/css">
	.st0{clip-path:url(#SVGID_2_);fill:#020201;}
	.st1{clip-path:url(#SVGID_2_);fill:#50B053;}
	.st2{clip-path:url(#SVGID_2_);fill:#CFF24D;}
	.st3{clip-path:url(#SVGID_2_);fill:#CEF04D;}
	.st4{clip-path:url(#SVGID_2_);fill:#4FAE53;}
	.st5{clip-path:url(#SVGID_2_);fill:#CFF14D;}
	.st6{clip-path:url(#SVGID_2_);fill:#4FAF53;}
	.st7{clip-path:url(#SVGID_2_);fill:#307539;}
	.st8{clip-path:url(#SVGID_2_);fill:#153831;}
	.st9{clip-path:url(#SVGID_2_);fill:#CEF14D;}
	.st10{clip-path:url(#SVGID_2_);fill:#307439;}
	.st11{clip-path:url(#SVGID_2_);fill:#163931;}
	.st12{clip-path:url(#SVGID_2_);fill:#153730;}
	.st13{clip-path:url(#SVGID_2_);fill:#173930;}
	.st14{clip-path:url(#SVGID_2_);fill:#F26D16;}
	.st15{clip-path:url(#SVGID_2_);fill:#4EAD52;}
	.st16{clip-path:url(#SVGID_2_);fill:#030403;}
	.st17{clip-path:url(#SVGID_2_);fill:#020502;}
	.st18{clip-path:url(#SVGID_2_);fill:#FCFCFC;}
	.st19{clip-path:url(#SVGID_2_);fill:#020202;}
	.st20{clip-path:url(#SVGID_2_);fill:#F5F5F5;}
</style>
<g>
	<defs>
		<rect id="SVGID_1_" x="-85.5" y="-18.8" width="723" height="686"/>
	</defs>
	<clipPath id="SVGID_2_">
		<use xlink:href="#SVGID_1_"  style="overflow:visible;"/>
	</clipPath>
	<path class="st0" d="M228,67.5c0.4-4.5,0.6-9.1,1.2-13.7c0.9-7.2,2-14.4,3.2-21.6c0.7-3.9,1.7-7.7,2.9-11.5
		c1.3-4.1,2.9-8.2,4.6-12.2c0.4-0.9,1.5-1.6,2.4-2c7.5-3.4,15.5-4.2,23.6-4.6c8.4-0.3,16.9-1,25.3-0.7c10.5,0.4,21,1.6,31.5,2.8
		c6.2,0.7,12.4,1.9,18.6,3c5.9,1.1,11.8,2.3,17.7,3.5c4.3,0.9,8.7,1.9,13,3c7.1,1.9,14.1,3.8,21.1,5.9c5.8,1.7,11.5,3.7,17.2,5.7
		c5.9,2.1,11.9,4.3,17.7,6.8c6.4,2.8,12.8,5.6,18.9,9c5.6,3.1,10.7,7.1,16.2,10.5c1,0.6,2.3,0.7,3.5,1c4.3,1.2,8.7,2.1,12.9,3.6
		c5.6,2,11.1,4.4,16.5,7c1.7,0.8,2.8,2.7,4.3,3.9c1.4,1.1,3,2,4.5,2.9c2.4,1.6,4.8,3,7.1,4.7c2.8,2.1,5.7,4.3,8.3,6.7
		c1.7,1.6,3,3.7,4.6,5.4c0.7,0.8,2,1,2.7,1.8c1.4,1.9,2.5,3.9,3.8,5.9c0.2,0.3,0.7,0.3,0.9,0.6c0.9,1.1,1.6,2.4,2.5,3.5
		c1.7,2.2,3.4,4.3,5,6.6c0.5,0.7,0.5,1.7,0.9,2.5c1.5,3.1,3.2,6.1,4.7,9.3c1.1,2.2,1.8,4.6,2.8,6.9c-0.2,0.1-0.4,0.3-0.6,0.4
		c0.6,0.1,1.1,0.2,2,0.4c-0.5,0.5-0.8,0.9-0.9,1c0.5,1.2,0.9,2.4,1.4,3.4c0.6,1.2,1.4,2.3,1.8,3.6c0.3,1,0.1,2.1,0.1,3.6
		c0.5,1.8,1.2,4.1,1.8,6.5c0.5,1.7,0.9,3.5,1.2,5.3c0.4,3,0.6,6.1,0.9,9.1c0.2,2.3,0.5,4.6,0.5,6.9c0,2.4-0.4,4.9-0.5,7.3
		c-0.1,2.8,0.1,5.6-0.3,8.3c-0.3,2.8-1.2,5.6-1.7,8.4c-0.1,0.7,0.2,1.5,0.1,2.2c-3.2,14.1-8.8,27.2-15.6,39.7c0,0-0.2-0.3-0.2-0.2
		c-1.7,2.5-3.8,4.8-5.1,7.5c-1.8,3.6-4.6,6.5-4.4,11.4c0.3,7.5-0.6,15.1-1.4,22.7c-0.7,6.1-1.8,12.2-2.9,18.3c-0.9,5-2,10-3.1,15
		c-0.7,3.2-1.5,6.4-2.5,9.5c-0.5,1.7-1.4,3.1-3.6,3.3c-1.8,0.2-3.5,0.9-5.1,1.7c-6.1,3-12.5,4.8-19,6.3c-1.7,0.4-3.7,1.5-4.8,2.9
		c-5.7,7.5-12,14.3-19.5,19.9c-6,4.5-12.2,8.5-19.4,11c-1.6,0.5-2.9,1.6-4.4,2.3c-1.7,0.7-3.4,1.8-5.1,1.8
		c-8.6,0.2-17.3,0.4-25.9-0.1c-6.3-0.4-12.7-1.7-18.9-2.9c-4.6-0.9-9-2.2-14-3.5c0.8,1.9,1.4,3.4,2.1,5c1.9,4.3,3.9,8.5,5.7,12.8
		c3.4,8.5,5.4,17.3,7.2,26.3c1.8,9.1,2.1,18.3,2,27.4c-0.1,6-0.3,12-1.3,17.9c-1,6.3-2.7,12.4-4.4,18.6c-1.4,5-3,10.1-5,14.9
		c-2.1,4.9-4.7,9.7-7.2,14.4c-1.4,2.7-2.8,5.5-4.5,8c-2.4,3.6-5.1,7-7.9,10.4c-2.1,2.6-4.2,5.1-6.5,7.5c-2.9,3-5.8,6-8.8,8.8
		c-2.7,2.5-5.5,4.9-8.3,7.3c-1.7,1.4-3.5,2.5-5.4,3.6c-2.6,1.6-5.4,3-8,4.6c-2.4,1.4-4.7,3-7.1,4.5c-1.9,1.1-3.7,2.3-5.7,3.1
		c-4.1,1.8-8.3,3.3-12.3,5.1c-7.8,3.3-16,4.9-24.2,6.5c-14.9,3-29.7,2.6-44.6,1.1c-4.4-0.5-8.8-1.3-13.2-1.8
		c-0.7-0.1-1.9,0.5-2.3,1.1c-2.7,4-5.4,8-7.9,12.1c-1.8,2.9-3.2,6-4.9,8.9c-2.6,4.2-5.3,8.4-7.9,12.6c-2.5,4-5,8.1-7.5,12.1
		c-1.6,2.6-3.2,5.1-4.8,7.7c-1.7,2.8-3.2,5.6-5,8.3c-1.1,1.6-2.5,3-3.7,4.6c-1.3,1.6-2.5,3.3-3.9,4.9c-3,3.5-5.9,7.3-9.4,10.2
		c-2.3,1.9-5.1,3.7-8.7,3.2c-2.2-0.3-4.5,0.8-6.7,0.4c-5.8-1-11.1-2.4-14.5-8.4c-1.8-3.1-2.2-6.1-2.7-9.2c-0.8-4.9,0.3-9.5,3-13.7
		c2.5-3.9,5-7.8,7.4-11.7c2.1-3.5,4.1-7.2,6.2-10.7c2.9-4.9,5.8-9.8,8.6-14.8c2.6-4.6,4.9-9.2,7.5-13.8c2-3.5,4.1-7,6.1-10.4
		c0.4-0.7,0.6-1.5,1-2.2c-5.1-1.6-9.9-3-14.7-4.8c-5.9-2.2-11.6-4.8-17.4-7.3c-3.6-1.5-7.2-3.1-10.7-4.9c-4.6-2.4-9-5-13.5-7.5
		c-2.7-1.5-5.4-3.1-7.9-4.8c-3.9-2.6-7.7-5.2-11.4-7.9c-4.8-3.5-9.6-7.1-14.2-10.8c-2.7-2.2-5.1-4.8-7.7-7.3
		c-2.6-2.5-5.4-4.8-7.9-7.4c-2.5-2.6-4.9-5.3-7.3-8.1c-2.8-3.3-5.7-6.5-8.4-9.9c-2.5-3.1-4.8-6.3-7-9.5c-3-4.3-6-8.5-8.7-13
		c-2.7-4.5-4.9-9.3-7.5-13.8c-3.9-6.9-7.2-14-9.7-21.4c-1.9-5.5-3.8-10.9-5.8-16.3c-2.8-8-4.9-16.2-6.2-24.5
		c-1.1-7.2-2-14.4-3.2-21.6c-2.4-14.2-1.7-28.5-0.8-42.7c0.5-8,1.9-16,3.1-23.9c0.7-4.6,1.7-9.2,2.9-13.8c1.8-7.1,3.8-14.2,6-21.2
		c1.9-5.9,4.2-11.6,6.5-17.4c1.9-4.6,3.8-9.3,6-13.8c3-6,6.2-11.9,9.5-17.7c2.2-3.9,4.8-7.6,7.2-11.3c2.4-3.8,4.8-7.7,7.4-11.3
		c2.5-3.5,5.3-6.9,8-10.2c3.7-4.5,7.3-9,11.2-13.4c3.3-3.7,6.7-7.2,10.2-10.7c3.7-3.6,7.4-7.2,11.3-10.7c2.2-2,4.5-3.8,6.8-5.7
		c2.9-2.4,5.7-4.7,8.6-7c2.1-1.7,4.3-3.4,6.5-5c2.5-1.8,5.1-3.7,7.7-5.3c3.8-2.5,7.6-4.8,11.5-7.2c3.8-2.3,7.7-4.5,11.5-6.8
		c1.3-0.7,2.6-1.4,3.9-2.1c3.5-1.8,6.9-3.7,10.5-5.4c3.5-1.6,7-3,10.6-4.5c6-2.5,11.9-4.9,18-7.3c1.8-0.7,3.7-1,5.5-1.5
		c4.8-1.3,9.6-2.7,14.4-4c4.2-1.1,8.4-2,12.7-3.1C221.5,69.2,224.7,68.4,228,67.5 M170.3,540c-0.3,0-0.6,0-1-0.1l0,0
		c-1.2-1.1-2.3-2.3-3.5-3.3c-5.2-4.7-10.6-9.2-15.7-14c-3.7-3.4-7.4-6.9-10.5-10.9c-4.5-5.8-8.8-11.8-12.6-18.1
		c-3.6-6-6.6-12.4-9.4-18.9c-2.3-5.3-4.3-10.9-5.7-16.5c-1.7-6.5-3.3-13.2-4-19.9c-2-18.6-1.5-37.2,3.7-55.4
		c2.1-7.4,5.2-14.5,8-21.6c1.2-3.1,2.6-6.2,4.3-9.1c4.2-7,8.6-13.8,13.7-20.2c5.6-7,12.1-13.1,18.6-19.2c6.5-4.5,12.9-9.3,19.6-13.5
		c5.1-3.2,10.5-5.8,15.9-8.3c4-1.9,8.3-3.1,12.5-4.7c1.5-0.5,2.9-1.1,4.4-1.4c4.6-1.1,9.3-2.3,14-3c5.1-0.8,10.2-1.5,15.3-1.5
		c8.9-0.2,17.9,0,26.8,0.3c3.9,0.1,7.7,0.9,11.2,1.3c-2.3-6.4-5.2-12.7-6.8-19.2c-1.3-5.4-1.3-11.2-1.8-16.9
		c1.3-2.5,1.9-2.6,4.8-0.9c0.4,2.5,0.7,5,1.1,7.5c0.8,4.5,1,9.2,2.5,13.4c2.6,7.7,6,15,10.9,21.6c2.7,3.6,5.1,7.4,8,10.8
		c4.8,5.5,10,10.8,15.2,16.4c1.7-2.5,2.8-3.9,3.7-5.6c1.8-3,3.4-6.2,5.1-9.2c1.4-1.9,3-3.7,4.2-5.7c3.1-5,6.1-10,9.3-15.3
		c-2-2.8-4-5.8-6.2-9c-2.5,2.3-4.7,0.5-6.6-0.6c-0.8-0.5-1.5-2.2-1.3-3.2c0.1-0.7,1.7-1.4,2.8-1.6c1-0.2,2.1,0.1,3.1,0.2
		c2-0.8,3.3-2.1,4-4.3c0.6-2.1,2.5-2.5,4.3-1.9c1.8,0.5,2,2.2,1.4,3.7c-0.5,1.4-1.5,2.7-2.1,4c-0.2,0.5-0.6,1.3-0.4,1.5
		c1.3,1.8,2.8,3.6,4.4,5.5c2.1-3.1,4-5.8,5.8-8.5c0.3-0.4,0.4-1.4,0.1-1.7c-1.7-2-3.2-4.4-5.4-5.6c-2.4-1.3-3-3.6-4.6-5.3
		c-2.2-2.3-3.6-5.4-5.6-8c-2.4-3.2-5.1-6.2-5.9-10.3c-0.1-0.3-0.4-0.6-0.6-1c-1.2-2-2.6-3.8-3.5-5.9c-1.2-2.6-2-5.3-2.9-8
		c-1.2-3.6-2.3-7.2-3.4-10.9c-0.3-0.9-0.9-1.8-1-2.8c-0.7-5-1.5-10-2-15c-0.2-2.1,0-4.3,0.1-7.2c-1.4-4.8,0.2-10.4,0.3-15.9
		c0.1-5.4,1.5-10.8,2.6-16.1c1.1-5,2.7-9.9,4-15c0.3-0.1,0.8-0.2,0.9-0.2c1-6.3,5.1-11.2,7.2-16.9c0.6-0.9,1.1-1.8,1.4-2.8
		c0.1-0.3,0-0.7,0.1-0.9c1.7-2.5,3.3-5.3,5.4-7.5c2.7-2.9,4-6.9,7.3-9.3c0.9-0.7,1.4-2,2.3-2.6c0.8-0.5-0.2-3.2,2.2-1.8
		c1.2-1.8,2.4-3.6,3.6-5.4c0.2-0.3,0.2-0.9,0.5-1.1c2.5-1.9,5-3.7,7.5-5.6c1.6-1.2,2.9-2.7,4.3-4.2c2.3-2.5,5.6-4.1,8.6-5.9
		c2.5-1.5,4.3-3.9,7.5-4.4c0.7-0.1,1.2-1.3,1.7-1.9c1.7-0.8,3.9,0,5.3-2.3c0.8-1.3,3.6-1.3,5.4-2c2.9-1.2,5.8-2.5,8.7-3.9
		c4.2-1.9,9.1-1.8,12.9-4.6c0.1-0.1,0.3-0.3,0.4-0.3c2.4,1.7,4.4-0.8,6.6-0.7c2.5,0.1,4.9,0,7-1.7c0.3-0.2,1-0.2,1.4-0.1
		c0.7,0.1,1.3,0.3,2,0.5c-2.4-1.4-4.9-2.5-7.5-3.4c-6.4-2.1-12.7-4.2-19.2-6.1c-7.6-2.2-15.3-4.2-23-6.3c-3.6-1-7.3-2-11-2.7
		c-8-1.5-16.1-2.8-24.1-4.2c-5.3-0.8-10.7-1.8-16-2.3c-5.7-0.6-11.4-0.9-17.1-1c-9.2-0.2-18.5,0.1-27.6,2c-6.5,1.3-12.8,2.9-18.3,7
		c-3,2.2-4.6,5-4.9,8.5c-0.8,7.6,2.3,13.8,6.9,19.5c0.4,1.9-0.1,3.3-2.1,3.8c-2,0.5-3.2-0.2-4.1-2.2c-1.1-2.3-2.8-4.4-4-6.7
		c-2.4-4.8-3.9-9.7-3-15.4c1.2-7.6,6.1-12.1,12.2-15.5c6-3.4,12.8-4.7,19.5-6c4.4-0.8,8.9-1,13.4-1.1c11.6-0.1,23.2-0.3,34.7,1.8
		c6.8,1.3,13.7,2,20.6,3.1c5.4,0.9,10.7,2.1,16,3.2c4.6,1,9.1,2,13.7,3.2c7.4,1.9,14.7,3.9,22,6.1c6.1,1.8,12.2,3.9,18.2,5.9
		c6.1,2.1,12.1,4.7,18.3,6.4c4.1,1.2,8.5,1.3,12.8,1.8c0.1-0.3,0.1-0.5,0.2-0.8c-3.7-2-7.5-4.1-11.3-6c-3.1-1.5-6.2-2.9-9.4-4.3
		c-5.7-2.5-11.3-5.1-17.1-7.3c-6.3-2.4-12.7-4.4-19.1-6.4c-7.1-2.2-14.2-4.1-21.3-6.1c-4-1.1-8-2.1-12-2.9
		c-5.6-1.2-11.2-2.3-16.8-3.4c-4.7-0.9-9.4-1.9-14.1-2.5c-10.6-1.3-21.2-2.8-31.9-3.5c-12.2-0.8-24.5-1.5-36.7,0.8
		c-4.3,0.8-8.7,1.3-13,2.2c-1.3,0.3-2.9,1.2-3.5,2.3c-1.2,2.2-2,4.7-2.7,7.1c-1.1,3.8-2.2,7.6-3,11.4c-1.2,6.1-2.3,12.2-3,18.3
		c-0.9,8.1-1.5,16.3-1.9,24.4c-0.3,6.6-0.1,13.1-0.2,19.7c0.2,6.6,0.4,13.3,0.8,19.9c0.4,7,0.3,14,2.1,20.9
		c1.5,5.8,2.1,11.8,3.2,17.7c1.2,6.4,3.2,12.6,6.9,18.1c1.1,1.6,0.5,3.5-0.9,4.4c-1.5,1-3.2,0.6-4.2-1.2c-0.9-1.6-2.2-3.2-2.8-4.9
		c-2.2-6.6-4.4-13.3-6.1-20c-1.4-5.3-2-10.7-3-16c0-0.6,0-1.2,0-1.7c-0.5-10.5-1.1-20.9-1.6-31.4c-0.1-1.3,0-2.6,0-4.1
		c-1.1,0.2-1.7,0.2-2.3,0.4c-5.2,2.2-10.4,4.2-15.5,6.6c-4,1.9-7.9,4.2-10.5,8c-1.1,1.5-2,3.1-3.1,4.6c-2.8,3.7-2.7,7.9-0.9,11.7
		c2.6,5.6,5.7,10.9,8.6,16.3c0.4,0.8,0.9,1.5,1.4,2.2c2.2,5.8,2.1,11.7,0.4,17.6c-0.7,2.6-1.9,5.2-3.5,7.3c-2.3,3.1-5.3,5.5-9,6.8
		c-0.9,0.2-1.8,0.2-2.7,0.5c-3.4,1.4-8.9,0.7-11.1-2.2c-3.2-4.3-6.5-8.7-8.8-13.5c-2.8-5.6-4.7-11.6-6.9-17.5
		c-1.7-4.6-4-8.9-7.1-12.7c-1.3-1.6-8.1-4.5-10.7-3.6c-4.7,1.7-9.3,3.1-12.1,8c-1.9,3.3-2.4,9.2,0.3,11.9c3.8,3.7,7.8,7.1,11.6,10.8
		c3.3,3.2,7.1,5.9,9.3,10.2c0.7,1.5,2,2.7,2.9,4.1c1,2,2.1,3.9,3,5.9c2.5,5.7,5.1,11.3,7.2,17.1c1.5,4.2,2.7,8.6,3.2,12.9
		c0.9,7.4,1.5,14.9,1.8,22.3c0.3,7.3-1.2,14.5-3.5,21.4c-1.7,5.1-3.6,10.2-5.7,15.2c-1.4,3.3-3.3,6.3-5,9.4c-2.3,1.3-4.4,3-6.8,3.7
		c-6.4,2-12.5-2.2-15.7-7.7c-3.5-5.9-5.3-12.5-6.9-19.1c-1.1-4.6-1.9-9.4-2.5-14.1c-1.2-10.4-2-20.8-3.2-31.1
		c-0.6-5.2-0.8-10.3-3-15.4c-2.7-6.5-6.2-11.9-12.3-15.6c-2.9-1.8-7.8-1.7-10.7-0.2c-3.6,1.9-5.8,5.1-8.1,8.1c-1.1,1.4-2,3-2.7,4.6
		c-1.2,2.5,1.2,6.4,3.2,7.9c1.7,1.3,3.5,2.4,4.9,3.9c2.9,3.2,5.9,6.5,7.3,10.8c1.4,4.1,2.8,8.1,4.2,12.2c1.3,9.5-0.5,18.2-6.6,25.9
		c-0.4,0.3-0.9,0.4-1.2,0.8c-2.3,2.5-5.1,3.9-8.5,4.3c-4.8,0.6-9-0.1-11.9-4.9c-2.5-4.1-5.7-7.8-8.7-11.6c-1.4-1.9-2.7-3.8-4.4-5.4
		c-2.4-2.3-5-4.3-7.6-6.4c-3.6-2.8-6.5-2.4-8.8,1.4c-2.1,3.5-4.2,7.2-5.5,11.1c-3.5,10.8-1.1,21.3,3,31.5c1.5,3.7,3.6,7.2,4.5,11
		c1,4.2,1.5,8.7,1.4,13.1c-0.1,4.2-0.5,8.7-2.3,12.4c-2.2,4.7-5.2,8.9-10.5,11.5c-5.9,3-10,1.3-13.1-2.8c-2.1-2.8-3.5-6.2-4.5-9.6
		c-1.5-5.1-2.5-10.4-3.6-15.6c-0.7-3.1-3.7-5.3-6.1-3.8c-1.4,0.9-3,2.6-3.3,4.2c-1.3,6.3-2.4,12.7-3.2,19c-2.1,18.3-2,36.6,1.8,54.8
		c1.5,7.2,3.2,14.4,5.7,21.4c2.6,7.4,4.6,15.1,7.1,22.5c1.6,4.8,3.4,9.7,5.6,14.3c3,6.3,6.2,12.5,9.8,18.5c4.2,7,8.5,14,13.3,20.7
		c4.2,5.9,9.4,11,13.8,16.8c5.8,7.6,13.6,13.1,20.4,19.7c1.2,1.2,2.5,2.3,3.8,3.4c2.4,1.9,4.7,3.8,7.2,5.6c0.7,0.5,1.8,0.7,2.6,1.1
		c0.6,0.9,1,2,1.8,2.6c3.7,2.6,7.4,5.1,11.2,7.5c6,3.7,12,7.4,18.2,10.7c5.4,2.9,10.9,5.4,16.5,7.7c7.2,3,14.5,5.6,21.8,8.3
		c2.1,0.8,4.2,1.4,6.3,2c0.4,0.1,1.3,0,1.5-0.3c0.7-1.4,1.2-3,1.8-4.4c-0.4-0.2-0.7-0.3-1.1-0.5l0,0c-1-0.7-2-1.3-3-2l0,0
		C171.7,541,171,540.5,170.3,540 M361.9,345c5.5,2,10.9,4.2,16.4,5.9c4.9,1.5,9.8,2.8,14.8,3.8c5,1.1,10,2.3,15.1,2.6
		c8.9,0.5,17.9,0.5,26.9,0.5c1.4,0,2.9-0.9,4.3-1.4c4.9-2.2,10.1-3.9,14.7-6.6c5.2-3.1,9.9-7.2,14.9-10.8c2.8-2.9,5.7-5.9,8.4-8.8
		c0.6-0.6,1-1.5,1.4-2.2c-8,0.5-15.6,1.3-23.2,1.5c-4.8,0.1-9.7-0.7-14.5-0.9c-10.3-0.3-20.4-2-30.3-4.6c-6.5-1.7-12.9-3.8-19.2-6.2
		c-5.4-2.1-10.6-4.9-16.2-7.5c-6.8,10.3-13.7,20.8-20.6,31.5C357.3,342.9,359.6,343.9,361.9,345 M393.3,312
		c4.3,1.6,8.5,3.5,12.8,4.9c4.8,1.5,9.7,2.7,14.7,3.6c6.7,1.2,13.4,2.3,20.1,2.8c10.4,0.8,20.8,0.9,31.3-0.6
		c10.3-1.4,20.5-3,30.3-6.8c3.3-1.3,6.6-2.6,9.8-4c0.5-0.2,0.8-1,1-1.6c1.1-4.8,2.3-9.6,3.2-14.5c1.1-5.6,1.9-11.2,2.9-16.8
		c0.5-2,1.2-4,1.5-6c0.4-2.4,0.6-4.8,0.8-7.2c0.3-4.6,0.6-9.2,0.9-14.3c-2,1.6-3.5,2.7-4.9,4c-0.7,0.7-1,1.8-1.8,2.5
		c-1.4,1.2-3.1,2-4.4,3.3c-1.5,1.4-2.3,3.3-4.7,4c-2.3,0.7-2.6,4.6-5.9,4.3c-0.1,0-0.2,0.4-0.4,0.6c-0.7,0.7-1.3,1.4-2.1,1.9
		c-1.3,0.9-2.8,1.6-4.2,2.4c-4.6,2.8-9.1,5.8-13.9,8.3c-1.8,0.9-3.6,2.5-6,1.9c-0.5-0.1-1.3,0.1-1.7,0.4c-2.7,2.8-7.2,2-9.9,4.7
		c-0.1,0.1-0.5,0-0.7,0.1c-2.2,0.7-4.4,1.5-6.6,2.3c-0.4,0.1-1,0.2-1.2,0.1c-1.3-1.5-2.3-0.3-3.4,0.3c-0.8,0.5-1.8,0.7-2.8,0.8
		c-3.8,0.4-7.6,0.7-11.4,1.1c-0.7,0.1-1.3,0.6-2,0.7c-2.4,0.2-4.8,0.2-7.3,0.4c-1,0.1-2,0.4-2.9,0.4c-3.5,0-7,0.1-10.5-0.1
		c-1.6-0.1-3.2-0.7-4.8-1.1c-3.6-0.8-7.2-1.2-10.8-1.9c-2.3-0.5-4.4-1.5-6.6-2.2c-1.8-0.5-3.5-0.4-4.7,1.3c-2.2,3.3-4.3,6.6-6.4,10
		c-2,3.1-1.9,3.1,1.3,4.8c0.3,0.2,0.5,0.4,0.8,0.6C386.2,308.9,389.8,310.5,393.3,312 M377.9,253.9c-0.3,2.1,1.7,1.3,2.6,2
		c0.1,0,0.2,0.1,0.3,0.1c0.4,0.1,0.7,0.3,1.1,0.4c4.2,1.8,8.3,3.5,12.5,5.2c1.3,0.5,2.7,0.9,4,1.3c3.2,0.9,6.5,1.8,9.7,2.5
		c2.9,0.6,6,0.9,8.9,1.4c1.7,0.3,3.4,0.8,5.1,0.7c3-0.2,6-0.7,9-1.1c2.1-0.3,4.2-0.6,6.3-0.9c3.4-0.4,6.9-0.4,10.2-1.1
		c3.6-0.7,7-2,10.5-3.1c2.3-0.7,5.1-0.9,6.6-2.5c2.4-2.4,5.8-2.5,8.4-4.6c3.1-2.5,7.3-3.8,10.4-6.6c1.2-1.1,2.5-2.1,3.8-3.1
		c2.1-1.6,4.3-3.1,6.4-4.7c1.1-0.8,1.9-1.9,2.9-2.9c1.1-1.1,2.2-2.1,3.1-3.3c1.4-1.7,2.2-4,3.9-5.2c3.5-2.5,5.4-6.3,7.5-9.6
		c1.5-2.2,2.5-4.8,4.2-7c0.9-1.8,1.9-3.5,2.6-5.3c2-5.6,3.9-11.2,5.7-16.9c0.9-2.9,1.3-5.8,1.8-8.8c0.5-3.4,0.8-6.9,1-10.4
		c0.1-0.7-0.4-1.5-0.7-2.3c1.2-1,1.9-6.7,0.6-8.1c-0.8-0.9-1.5-1.4-0.2-2.4c0.4-0.3,0.3-1.4,0.2-2.1c-0.3-1.9-1.2-3.7-1.2-5.6
		c0-2.8-3.1-5-1.4-8c0.1-0.2-0.4-0.7-0.7-1c-1.9-2.4-1.5-5.6-3-8.2c-1.4-2.4-2.3-5.1-3.5-7.6c-1-2.1-2.3-4-3.5-6
		c-2.1-3.3-4-6.6-6.7-9.4c-0.8-0.8-1.6-1.7-2.4-2.6c-1.9-2-3.7-4-5.7-6.2c0,0,0.3-0.4,0.3-0.4c-1.6-1.1-3.1-2.1-4.6-3.1
		c-1.1-0.8-2.3-1.4-3.5-2.2c-0.3-0.4-0.5-0.9-0.8-1.2c-1.4-0.9-3-1.4-4.3-2.5c-2.5-2.1-5.4-3.4-8.2-4.7c-1.5-0.7-3.3-1-4.8-1.8
		c-2.3-1.1-4.3-2.8-6.7-3.6c-3.9-1.3-7.8-2.4-11.8-3.1c-3.6-0.7-7.2-0.8-10.8-1.1c-2.5-0.2-5-0.3-7.6-0.5c0-0.1,0.1-0.1,0.1-0.2
		c0,0.1-0.1,0.1-0.1,0.2c-2.6,0.2-5.2,0.3-7.8,0.5c-3.3,0.2-6.7,0.2-10,0.7c-3,0.5-5.9,1.6-8.8,2.6c-2.2,0.7-4.3,1.8-6.5,2.6
		c-2.9,1-6,1.4-8.7,2.8c-4.1,2-8,4.5-12,6.9c-1,0.6-1.7,1.5-2.7,2.1c-2.9,1.8-6.2,3.3-8.9,5.5c-3.1,2.5-5.9,5.5-8.7,8.5
		c-3,3.3-6.3,6.5-8.7,10.1c-3.5,5.2-6.5,10.8-9.6,16.3c-1,1.7-1.2,3.8-1.9,5.7c-1.3,3.2-3.1,6.3-4.1,9.6c-1,3.2-1.3,6.5-1.8,9.8
		c-0.7,4.4-1.3,8.8-1.7,13.2c-0.5,5.1,1.1,10.2,0.2,15.3c-0.1,0.5,0.4,1.1,0.5,1.6c0.3,1.5,0.7,3.1,0.9,4.6c0.1,0.6,0,1.2,0.2,1.7
		c1,3.6,2,7.2,3.2,10.7c1.4,4.1,2.7,8.4,4.7,12.2c1.5,2.8,3.9,5.2,5.5,8.2c1.5,2.8,3.9,5.1,6,7.6c0.9,1.1,2,2.2,3,3.2
		c2.1,2,4.3,4,6.5,6c1.9,1.7,4,3.3,6,4.9c1.1,0.9,2.3,1.9,3.5,2.6C375.3,253.1,376.7,253.4,377.9,253.9L377.9,253.9z M387.9,450
		c0-1,0.1-2,0.1-3c0-0.3,0-0.6,0-0.9c0.3-0.3,0.7-0.5,0.8-0.8c0.4-3.9,1-7.8,1-11.6c0-6.9,0-13.8-0.5-20.7c-0.5-6.7-1.3-13.4-2.6-20
		c-1-5.2-2.8-10.4-4.7-15.4c-2.7-6.9-6.1-13.6-9-20.5c-0.9-2.1-2.5-3.3-4.5-4.1c-4.8-1.9-9.5-4-14.3-6c-1.2-0.5-2.2-1-3,0.7
		c-0.7,1.6-1.9,3-2.9,4.5c-4.7,7-9.4,14-14,21c-3,4.6-6,9.2-9,13.8c-1.8,2.7-1.6,4.1,1.1,5.5c0.7,0.9,1.4,1.8,2.1,2.7
		c2.4,2.7,5.2,5.2,7.2,8.2c3.2,4.8,6,9.7,8.5,14.9c3.1,6.4,5.3,13,6.6,19.7c2.9,14.9,2.9,29.8-0.8,44.7c-1.6,6.3-3.3,12.5-6.2,18.4
		c-2.5,5-4.8,10.1-7.6,14.8c-2.3,3.9-5.1,7.5-8,11c-3.6,4.4-7.3,8.8-11.5,12.6c-4.6,4.1-9.8,7.6-14.7,11.3c2.5-0.6,5.1-1.4,7.5-2.5
		c4.3-2.1,8.6-4.3,12.8-6.6c4.6-2.6,9.3-5.1,13.6-8.2c4.3-3.2,8.3-6.8,12.2-10.5c3.6-3.4,7-7.1,10.3-10.8c2.5-2.8,4.7-5.8,6.8-8.9
		c2.8-4.2,5.6-8.4,8.1-12.8c1.8-3.2,3-6.7,4.8-10c3.4-6.3,5.3-13,7.3-19.8C386.4,457.3,387.1,453.6,387.9,450 M201,501
		c0.8-1.1,1.7-2.1,2.4-3.3c2.8-4.8,5.7-9.5,8.4-14.4c2-3.5,3.7-7.1,5.6-10.7c-0.3,0-0.6-0.1-0.9,0c-6,1-11.1,4-16,7.3
		c-1.3,0.9-2.4,2-3.3,3.3c-1.7,2.6-3.2,5.5-4.8,8.2c-1.2,1.6-2.3,3.4-3.5,4.9c-2.6,3.2-5.8,5.7-10,6.2c-4.9,0.5-10.4-3.7-12.1-9.1
		c-1.5-4.8-3-9.7-2.4-14.8c0.4-3.4,0.6-6.9,1.1-10.3c0.9-5.1,2-10.2,2.9-15.3c1.4-7.7,3.7-15.2,6.7-22.4c1.5-3.5,3-7,4.6-10.4
		c0.9-1.9,1.9-3.9,3.2-5.5c3.8-4.7,7.7-9.3,11.7-13.7c5.4-5.9,11.3-11.1,18.2-15.2c4.5-2.7,8.8-5.7,13.5-7.9
		c4.9-2.3,10-4.3,15.2-5.7c5.9-1.5,12-2.5,18.1-3.1c5.1-0.5,10.3,0,15.5-0.1c0.8,0,2-0.5,2.4-1.2c3-4.5,5.8-9,8.6-13.6
		c2.8-4.6,5.4-9.2,8.1-13.8c1.4-2.4,3.2-4.5,4.6-6.9c1.5-2.6,2.9-5.3,4.3-7.9c1.8-2.4,3.5-4.9,4.9-6.9c-4.1-3.7-7.9-6.9-11.4-10.4
		c-2.6-2.6-4.9-5.6-7.3-8.4c-2.1-2.6-4-5.5-6.2-8.1c-1-1.2-2.2-2.9-3.5-3.1c-9.1-1.4-18.2-2.9-27.3-3.4c-7-0.4-14,0.7-21,1.3
		c-9,0.8-17.7,2.6-26.1,5.9c-5.3,2.1-10.7,4-15.9,6.3c-3.7,1.6-7.3,3.4-10.8,5.5c-3.7,2.2-7.3,4.8-10.8,7.3c-3.5,2.5-7,5.1-10.3,8
		c-2.7,2.3-5,5-7.4,7.6c-3.5,3.7-7.1,7.3-10.2,11.3c-3.5,4.6-6.8,9.5-9.6,14.6c-3.4,6.1-6.6,12.4-9,18.9c-2.6,7-4.5,14.4-6.2,21.7
		c-1,4.1-1.2,8.4-1.6,12.6c-0.3,4.1-0.4,8.1-0.6,12.2c-0.1,2.3-0.8,4.5-0.6,6.8c0.2,3.3,0.9,6.5,1.4,9.8c0.8,4.4,1.6,8.7,2.4,13.1
		c1.4,8,3.7,15.7,6.9,23.2c1.5,3.5,2.7,7.1,4.5,10.4c3.5,6.2,7.1,12.3,11,18.2c2.3,3.5,5,6.8,7.8,10.1c2.2,2.7,4.7,5.1,7.2,7.6
		c3.7,3.6,7.4,7.4,11.4,10.7c3.6,3,7.6,5.6,11.3,8.5c2.9,2.2,4.3,2.2,5.5,0c3.6-6.6,7.1-13.1,10.7-19.6c1.3-2.4,3-4.7,4.3-7.1
		C198,507,199.5,504,201,501 M187.7,419c-0.8,1-1.8,1.9-2.3,3.1c-2.1,4.6-4.4,9.2-6,14c-2.2,6.6-4,13.4-5.7,20.2
		c-1.2,5-2.1,10-2.8,15.1c-1,7.1-0.7,14.2,2.4,20.9c1.6,3.4,6,4.4,8.6,1.6c2-2,4-4.2,5.2-6.7c2.4-4.9,5.8-8.8,10.1-12
		c4.8-3.6,10-6.4,15.8-7.7c11-2.5,21.5-1.4,31.6,4.1c6.8,3.7,12.1,8.7,16.5,14.5c4.5,5.9,7.4,12.8,9,20.1c0.8,3.6,1,7.4,1.3,11.1
		c0.3,3.9-0.2,4.5-4.2,5.1c-0.5-1.8-1.5-3.7-1.5-5.5c-0.1-7.7-2.3-14.8-6-21.7c-2.1,3.4-4.1,6.5-6.1,9.7c-3.5,5.9-7,11.7-10.5,17.6
		c-1.3,2.2-2.6,4.4-3.9,6.6c-2.7,4.5-5.5,9.1-8.3,13.6c-1.5,2.4-3.2,4.8-4.6,7.2c-1.3,2.2-2.5,4.5-3.9,7.1h2.3
		c2.7,0.5,5.5,1.2,8.2,1.5c12.5,1.5,25.1,2.9,37.5-0.9c5.7-1.8,11.4-3.3,16.8-5.6c4.7-2,9.1-4.8,13.4-7.6c3.7-2.4,7.2-5.1,10.6-7.9
		c2.6-2.3,4.9-4.9,7.3-7.5c2.6-2.9,5.4-5.7,7.6-8.9c2.9-4.1,5.5-8.3,7.8-12.7c2.6-4.9,5.2-9.8,7-15c1.9-5.3,3.3-10.9,4.2-16.5
		c1.9-11.4,1.8-22.9-0.2-34.3c-0.5-1.7-1.1-3.4-1.4-5.1c-0.8-5.8-3-11.2-5.3-16.5c-0.8-1.9-1.7-3.7-2.8-5.4c-1.2-2-2.4-4-3.8-5.9
		c-2.2-2.9-4.4-5.8-7-8.3c-4.7-4.5-9.4-8.9-14.5-12.8c-3.5-2.6-7.5-4.8-11.6-6.2c-6.9-2.4-13.9-4.7-21-5.9c-9.1-1.5-18.3-1.4-27.4,1
		c-3.6,0.9-7.1,1.9-10.7,2.8c-7.8,2.1-15,5.5-21.6,10.1c-4.8,3.3-9.5,6.8-14.1,10.3c-1.5,1.1-2.7,2.6-3.9,4c-2.5,2.7-5,5.4-7.3,8.3
		C190.9,413.9,189.4,416.5,187.7,419 M167.4,241.6c0-0.5,0.1-1.4,0-2.3c-0.2-2.6-1.7-4-4.3-4.3c-4.2-0.5-7.4,1.4-10.1,4.3
		c-2.1,2.2-3.9,4.8-5.8,7.2c-3.5,4.4-5.9,9.3-5.2,15c0.7,5.3,4.1,8.6,9,6.5c1-0.4,1.9-1.1,2.8-1.6c3.7-2.1,6.3-5.4,8.3-9
		C164.6,252.6,167.8,247.9,167.4,241.6 M134,154c-2.9-0.1-5.3,1-7.6,3.1c-3.5,3.1-6.1,6.7-7.5,11.1c-0.1,0.4-0.3,0.8-0.5,1.3
		c-1.4,2.7-1.4,5.7-0.2,8.2c1.9,3.8,5.1,4.2,9.4,2.3c6.3-2.7,9.8-7.8,12-13.9c0.3-0.8,0.2-1.7,0.6-2.4
		C142.5,158.9,139.5,154,134,154 M48.4,285.6c0-0.6,0.1-1.2,0-1.7c-0.6-4-4.4-7.1-8-4.8c-3,1.9-5.6,4.4-7.9,7.1
		c-1.7,2-3.2,4.6-3.9,7.2c-0.9,3-0.9,6.3-1.2,9.5c-0.2,1.9,1.3,3,2.6,4.1c1.1,1,4.6,1.6,5.8,0.6c1.6-1.3,3.2-2.5,4.7-4
		c1.2-1.2,2.2-2.7,3.2-4.1C46.7,295.4,48.5,290.8,48.4,285.6 M103.9,232.4c0.1-6.6-3.2-11.1-8-9.8c-2.3,0.6-4.8,2-6.5,3.7
		c-3,3.1-4.7,7.1-5.8,11.3c-0.9,3.4-0.2,6.7,2.5,9.4c1.6,1.5,3.5,2.6,5.6,1.9c1.8-0.6,3.8-1.6,5.1-3
		C100.9,241.9,103.2,236.9,103.9,232.4 M187,168.5c2.2-0.9,5.1-1.2,6.6-2.7c3.7-3.9,6-8.6,4.8-14.3c-0.7-3-1.7-5.8-5.1-6.8
		c-3.1-0.9-6.2-0.5-8.7,1.6c-3.4,2.9-5.5,6.6-6.1,11.1C177.9,161.8,180.8,168.6,187,168.5 M70,183.1c0.3-2.9-1.2-5-3.2-6.4
		c-2.4-1.6-5.2-0.9-7.3,0.7c-4.1,3-6.8,6.9-8.4,11.9c-1.1,3.7-1.1,6.8,1.2,9.8c0.4,0.6,1.1,1,1.8,1.3c3.4,1.3,5.7-0.6,8.2-2.5
		C67.4,194.2,68.6,188.6,70,183.1 M29.9,224.8c0,0.7-0.1,1.5,0,2.2c0.4,3,4.3,5,6.6,3.3c4.7-3.4,8.1-7.7,9.3-13.6
		c0.6-3-0.4-5.8-2.1-7.3c-2.4-2.2-4.8-0.7-6.3,0.6C33,213.9,30,218.7,29.9,224.8 M119.5,125.8c0.6-4.1-3.9-6.5-7.8-4.4
		c-3.8,2-6.7,5-9,8.6c-0.8,1.3-1.3,2.8-1.7,4.3c-0.4,1.7,1.2,4.2,3,4.7c3.3,1,5.9,0.1,8.7-1.9C116.7,134.2,118.6,130.4,119.5,125.8
		 M89.4,151.4c0-5.8-2.7-7.6-7-5.6c-1.3,0.6-2.4,1.8-3.4,2.9c-2.8,2.7-4.9,6.2-4.9,10c-0.1,4,1.9,6.4,6.7,4.8
		c1.3-0.5,2.3-1.9,3.4-2.9C87.2,157.9,88.9,154.5,89.4,151.4 M166.4,216.3c0-3.6-0.5-4.1-4-3.8c-2.2,0.1-3.7,1.5-5.4,2.8
		c-3.3,2.6-5.6,5.6-6.4,9.7c-0.4,2.2,0.5,4.2,2.4,5c1.1,0.5,2.7-0.3,4.1-0.4c2.5-0.3,3.5-2.4,4.8-4.1
		C164,222.7,166.4,220.1,166.4,216.3 M144.9,108.7c0-4.1-1.6-5.4-5.2-4.3c-1.9,0.6-3.7,1.7-5.5,2.6c-2.8,1.5-4.3,4.1-5.2,6.9
		c-1.3,4.5,1.8,7.4,6.2,6.1c1.7-0.5,3.2-1.7,4.6-2.7C142.9,115.1,145.2,112.5,144.9,108.7 M85.5,208.2c-1.1-1.4-1.8-3.3-3.1-3.8
		c-1.2-0.5-3,0.4-4.5,0.9c-0.8,0.3-1.4,1.3-2.1,1.9c-3.4,3.2-6.1,8.7-4.1,13.4c1,2.2,3.2,3.1,5.5,2.4c2.4-0.7,3-2.7,3.8-4.4
		C82.6,215.4,83.9,212,85.5,208.2 M138.4,212.9c0,0.7-0.1,1.3,0,2c0.3,2.2,3.8,4.7,5.9,3.3c1.9-1.3,4-2.6,5.3-4.4
		c2-2.9,3.7-6.1,3.3-9.8c-0.3-2.4-3.1-4-5.4-3c-2.7,1.1-4.6,3.1-6.4,5.4C139.4,208.4,138.6,210.5,138.4,212.9 M169.9,98.8
		c0-0.5,0.1-1.3,0-2c-0.5-3.1-3.2-4.8-5.7-3.4c-1.8,1-3.7,2.1-5.1,3.6c-2.6,2.7-4.8,5.7-4.3,9.9c0.2,1.8,4.4,4.1,6,2.8
		c2.1-1.6,4.1-3.2,6.3-4.6C169.3,103.6,170.1,101.6,169.9,98.8 M183.8,98.5c4.7-0.7,8.3-3.4,10.8-7.3c0.8-1.2,0.8-3.2,0.4-4.7
		c-0.8-3-6.3-3.8-9.2-1.6c-1.9,1.5-3.7,3-5.5,4.5c-1.4,1.2-2.7,5-1.9,6.2C179.7,97.6,181.2,99,183.8,98.5 M222.3,79.4
		c0.2-0.1,0.4-0.2,0.6-0.3c-0.9-1.3-1.5-3.2-2.7-3.8c-1.2-0.6-3.5-0.6-4.6,0.1c-2.7,1.8-5.1,4.1-7.5,6.3c-1.5,1.3-2.1,5.8-1.1,7.3
		c1,1.6,3.8,2.1,6.3,0.8c2-1,4.1-2,5.5-3.6C220.5,84.3,222.9,82.5,222.3,79.4 M120.8,142c-0.4,0-0.8,0-1.1,0
		c-3.6,0.4-9.5,7-9.3,11.1c0.2,3.1,2.9,6.1,5.1,5.3c5.2-1.9,9.3-7,8.9-13.1C124.2,143.2,123.1,141.7,120.8,142 M19.8,242.4
		c0.9,2.2,1.5,4,2.4,5.6c0.8,1.5,3.5,2,4.6,0.8c1.4-1.4,3-3,3.5-4.7c0.9-3.3,3.6-6.4,0.9-10.2c-1.9-2.6-6-3.2-7.6-0.4
		C21.9,236.2,20.9,239.4,19.8,242.4 M39.4,252.4c0.3-2.4-1.4-3.6-3-4.6c-1.4-0.9-2.8-0.5-3.8,1c-0.1,0.1-0.5,0.1-0.7,0.2
		c-5.1,2.7-5.7,9.1-4.1,13.3c0.7,1.8,3.6,2.9,4.8,1.9C36.7,261.3,38.7,257.2,39.4,252.4 M89.9,174.8c0-5.3-1.8-6.5-5.6-5.3
		c-3.7,1.2-6,3.9-7.2,7.3c-1,2.7-0.7,5.3,2.3,7.2c2.1,1.3,3.2-0.2,4.6-0.9C88.2,181.3,89.8,177.8,89.9,174.8 M73.4,201.9
		c-0.6-1.4-0.7-2.4-1.3-3c-2.6-2.4-6.1-2.1-8.2,0.8c-1.4,2-2.4,4.3-3.9,6.2c-1.3,1.7-1.4,3.4-0.3,4.9c1.2,1.6,3.1,2.8,5.2,1.7
		c1.5-0.7,3.2-1.6,4.1-2.9C70.7,207.1,72,204.4,73.4,201.9 M102.4,157c0.3-3.5-0.9-6-5.4-5c-0.8,0.2-1.6,0.6-2.2,1.2
		c-1.3,1.5-2.4,3.1-3.7,4.6c-1.6,1.9-1.6,4.1-0.9,6.1c0.9,2.6,2.9,3.6,5,2.8C98.5,165.6,103.1,161.5,102.4,157 M33.9,274.8
		c-0.8-1.3-1.3-2.7-2.3-3.8c-1.8-2.1-3.1-0.3-4.8,0.6c-4.2,2.4-5.7,6.1-5.5,10.7c0.1,1.9,3.2,4.8,4.5,4.1
		C29.6,284.5,33.8,280.6,33.9,274.8 M172.5,140c0.2-0.1,0.6-0.2,1-0.3c4.1-0.5,5.7-3.8,7.3-6.9c1-1.9,0.6-4.3-1.4-5.5
		c-1.2-0.7-3.3-1-4.5-0.5c-3.4,1.5-5.4,4.3-6,8C168.3,138.1,169.2,139.6,172.5,140 M130.2,125.3c-0.8,0.3-1.8,0.4-2.5,0.8
		c-2.9,1.6-5,4.1-6.2,7c-0.7,1.6-0.2,3.5,1.3,4.8c1.2,1,2.7,1.3,4,0.3c1.2-0.8,2.3-1.9,3.5-2.9c2.2-1.8,3.1-4.2,3.1-7
		C133.3,126.4,132.5,125.1,130.2,125.3 M131.4,189.5c0,4.3,1.5,6.1,3.7,5.4c3.9-1.2,7-4.6,6.8-9c-0.2-4-2.5-5.5-6.2-3.6
		C132.4,184.1,131.6,187.2,131.4,189.5 M86.9,215.3c0,4.2,1.5,5.4,4.6,4.7c4.6-1,7.2-8.8,3.9-12.1c-0.7-0.7-2.6-0.9-3.5-0.5
		C88.4,209.2,87.4,212.7,86.9,215.3 M142.4,173.4c0,0.4,0,0.8,0,1.2c0.2,2.8,2.2,3.6,4.9,2.5c2.9-1.2,3.8-3.4,4.9-6
		c0.9-2,0.7-3.3-0.7-4.1c-1.1-0.7-2.9-0.8-4.2-0.5C144.4,167.1,142.4,170.3,142.4,173.4 M19.4,269.7c-0.6-1.2-1-3.1-1.9-3.5
		c-1.1-0.5-3.4,0-3.9,0.8c-1.7,2.6-3.7,5.1-3.7,8.6c0,1.8,1.2,2.6,2.3,3.1c0.9,0.4,2.5,0,3.3-0.6C18.1,276.2,18.7,273.1,19.4,269.7
		 M161.3,191c0.4-1.5-0.4-3.2-2.1-3.2c-1.6-0.1-3.5,0.6-4.8,1.7c-1.2,1-2,2.9-2.5,4.5c-0.4,1.1-0.6,2.8-0.1,3.6
		c0.9,1.3,2.7,2,4.4,1.2C159,197.5,161.5,194.8,161.3,191 M58.2,208.6c-1.3-1.6-2.2-3-3.4-4c-0.5-0.4-2.2-0.1-2.7,0.5
		c-2.2,2.4-3.5,5.3-3.7,8.5c-0.1,1.1,0.5,2.8,1.3,3.2c0.8,0.5,2.8,0.2,3.4-0.5C55,214,56.4,211.4,58.2,208.6 M106.6,172.4
		c1.2-0.6,2-1.1,2.8-1.4c2.8-1,5-4.7,4.5-7.5c-0.4-2-2-3-3.9-2.2c-1.2,0.5-2.2,1.5-3.3,2.2c-2,1.2-3.3,5-2.1,7
		C104.9,171.2,105.8,171.7,106.6,172.4 M165.6,113c-3.2-0.3-6.8,4.7-6.2,7.4c0.6,2.9,1.9,3.8,4.7,2.5c1.6-0.8,3.3-2.1,4.2-3.6
		C170.6,115.6,169.3,113,165.6,113 M190.1,114.9c-0.9-1.6-1.3-3.3-2.2-3.7c-1.7-0.7-3.8-0.4-5.1,1.3c-1.1,1.4-2.2,2.8-2.8,4.4
		c-0.3,0.7,0.2,2.1,0.8,2.8c1.8,2.3,4.2,1.4,5.9,0.2C188.3,118.8,189,116.7,190.1,114.9 M136.3,204.8c0.1-3.8-1.8-5.3-3.9-4.1
		c-0.8,0.5-1.6,1.1-2.1,1.9c-0.9,1.7-1.2,3.8-2.4,5.2c-1.8,2.1,1.1,2.5,1,3.8c1.1,0.1,2.8,0.6,3.2,0.1
		C134.1,209.3,136.4,207,136.3,204.8 M142.9,235.3c-0.3-0.4-0.9-1.5-1.8-2.3c-0.4-0.4-1.6-0.3-2.2,0c-2.8,1.8-4,4.6-4.5,7.6
		c-0.4,2.2,1.7,4,3.6,3.2C140.1,243.1,142.9,238.6,142.9,235.3 M73.9,167.6c0-3.4-1.5-4.5-4.3-2.6c-1.5,1-2.5,2.9-3.6,4.5
		c-1.5,2.2-0.5,4.3,2.1,4.6C71.3,174.2,73.9,171.4,73.9,167.6 M73.9,239.2c0,2.8,2,4.3,4.1,2.7c1.6-1.2,3-3,3.8-4.9
		c0.4-1-0.8-2.8-1.7-3.8c-0.5-0.5-2.2-0.4-3,0.1C74.8,234.5,73.8,236.7,73.9,239.2 M23.9,254.5c-0.2-0.1-0.4-0.2-0.7-0.3
		c0.6-2.3-0.6-3.6-2.6-4.2c-2.3-0.7-2.9,1.1-3.7,2.7c-0.2,0.5-0.6,0.9-0.8,1.4c-1,2-0.1,3.7,1.2,4.9c0.6,0.6,2.8,0.6,3.5,0
		C22.2,257.8,22.9,256,23.9,254.5 M82.9,191.9c0-3.6-1-4.2-4.2-2.5c-2.6,1.3-2.9,3.7-2.8,6.2c0.1,1.9,1.2,2.8,3.1,2.3
		C81.7,196.9,82.8,195.2,82.9,191.9 M46.9,198.5c0-2.5-0.6-3.4-2.4-3.5c-2.6-0.1-4.6,2.3-4.6,5.7c0,1.8,0,3.4,2.4,3.4
		C44.9,204,46.9,201.6,46.9,198.5 M35.9,271.6c0.2,1.3,0.2,3.2,2.7,3.4c2.4,0.1,4.2-2.2,4.3-5.1c0-2.4-1-3.7-2.9-3.6
		C37.2,266.2,35.9,267.8,35.9,271.6 M147,124c0.5-0.2,1.6-0.5,2.5-1.1c2.3-1.5,2.6-5.1,1-6.8c-1.6-1.7-2.1,0.4-3.1,0.6
		c-2.6,0.3-2.7,2.6-3.4,4.3C143.3,122.6,144.5,124,147,124 M205.9,97c0.5-1.9-1.4-2.7-2.4-2.3c-1.9,0.7-4,1.8-5.3,3.4
		c-1.4,1.8-0.1,4.2,2,4.4C202.4,102.7,205.9,99.4,205.9,97 M147.9,188.5c2.6,0,5.9-3.6,5.3-5.3c-0.3-0.9-1.5-2-2.4-2.1
		c-2.4-0.4-3.5,1.3-4.2,3.3c-0.3,1-0.9,2.2-0.6,3.1C146.2,188.1,147.6,188.3,147.9,188.5 M41.9,238.4c0-2.3-0.9-3.4-2.8-3.4
		c-1.4,0-4.7,4-4,5.5c0.5,1.1,0.7,3.1,2.8,3C39.2,243.4,41.8,240.1,41.9,238.4 M193.9,134.8c0-3.2-1.1-4.6-2.9-4.3
		c-2.5,0.4-4.3,4.4-3.3,6.7c0.8,1.9,2.5,1.8,3.5,1.1C192.5,137.3,193.3,135.5,193.9,134.8 M101.2,147.6c0.5,0.4,1.2,1.5,2.2,1.7
		c1.7,0.4,4.5-2.4,4.5-4.2c0-1.3-0.4-2.5-2.2-2.7C103.2,142.2,101.6,142.8,101.2,147.6 M64.4,225c0,1.8-0.1,3.4,2.2,3.5
		c1.5,0,3.8-2.5,3.7-4.2c-0.1-1.9-1.8-2.7-3.2-2.7C65.2,221.6,64,223,64.4,225 M93.6,145c1.6,0.1,3.9-1.6,3.6-3.1
		c-0.3-1.1-1.6-2.6-2.6-2.8c-2.1-0.3-2.6,1.6-2.7,3.3C91.8,143.7,91.6,145.1,93.6,145 M36.5,309.4c-1,1.5-2.2,2.6-2.5,3.9
		c-0.3,1.3,0.3,2.8,2.3,2.7c2.2-0.1,3-1.8,2.9-3.4C39.1,311.6,37.7,310.7,36.5,309.4 M26.4,264.2c-2.5-2.6-3.2-2.8-4.7-1.3
		c-1.1,1.1-1.7,2.3-0.6,3.6C22.2,267.8,24,267,26.4,264.2"/>
	<path class="st1" d="M193.4,176.7c3.7-1.3,6.7-3.8,9-6.8c1.6-2.1,2.7-4.7,3.5-7.3c1.7-5.9,1.8-11.8-0.4-17.6
		c0.4-0.9,0.6-2.2,1.4-2.7c3.4-2,6.8-4,10.4-5.6c3.9-1.7,8.1-2.9,12.1-4.3c1,5.4,1.7,10.8,3,16c1.7,6.8,3.9,13.4,6.1,20
		c0.6,1.7,1.8,3.3,2.8,4.9c1,1.8,2.7,2.2,4.2,1.2c1.4-0.9,2.1-2.8,0.9-4.4c-3.7-5.5-5.7-11.6-6.9-18.1c-1.1-5.9-1.7-11.9-3.2-17.7
		c-1.8-6.9-1.7-13.9-2.1-20.9c-0.4-6.6-0.5-13.3-0.8-19.9c2.8-1.1,5.7-2.2,8.5-3.3c5.1-1.9,10.2-4,15.4-5.8
		c6.8-2.4,13.7-4.7,20.6-6.9c6.3-2,12.5-3.9,18.9-5.6c4.6-1.2,9.3-2.2,14-2.9c4.7-0.7,9.5-1.1,14.3-1.6c5.6-0.6,11.3-1.3,17-1.5
		c10.6-0.3,21.3-0.2,31.9-0.3c-0.6,0.7-1.1,1.9-1.7,1.9c-3.1,0.4-5,2.9-7.5,4.4c-3,1.8-6.3,3.4-8.6,5.9c-1.4,1.5-2.7,3-4.3,4.2
		c-2.5,1.9-5,3.7-7.5,5.6c-0.3,0.2-0.3,0.7-0.5,1.1c-1.2,1.8-2.4,3.6-3.6,5.4c-2.3-1.4-1.3,1.3-2.2,1.8c-0.9,0.6-1.4,1.9-2.3,2.6
		c-3.3,2.4-4.6,6.4-7.3,9.3c-2.1,2.2-3.6,5-5.4,7.5c-0.2,0.2,0,0.6-0.1,0.9c-0.4,1-0.8,1.9-1.4,2.8c-2.1,5.6-6.1,10.5-7.2,16.9
		c-0.1,0-0.6,0.1-0.9,0.2c-1.4,5-2.9,10-4,15c-1.2,5.3-2.5,10.7-2.6,16.1c-0.1,5.5-1.7,11.2-0.3,15.9c0,2.9-0.3,5.1-0.1,7.2
		c0.5,5,1.3,10,2,15c0.1,1,0.7,1.8,1,2.8c1.1,3.6,2.2,7.3,3.4,10.9c0.9,2.7,1.7,5.5,2.9,8c0.9,2.1,2.3,3.9,3.5,5.9
		c0.2,0.3,0.5,0.6,0.6,1c0.8,4.1,3.5,7.1,5.9,10.3c2,2.6,3.4,5.7,5.6,8c1.6,1.7,2.2,4,4.6,5.3c2.2,1.2,3.7,3.6,5.4,5.6
		c0.3,0.3,0.2,1.3-0.1,1.7c-1.8,2.7-3.6,5.4-5.8,8.5c-1.5-1.9-3-3.6-4.4-5.5c-0.2-0.3,0.2-1.1,0.4-1.5c0.7-1.4,1.6-2.6,2.1-4
		c0.6-1.5,0.3-3.2-1.4-3.7c-1.8-0.5-3.7-0.1-4.3,1.9c-0.6,2.2-2,3.5-4,4.3c-0.9-1.4-1.7-2.9-2.7-4.3c-1.5-2.1-3-4.3-4.6-6.3
		c-2.4-2.9-4.9-5.7-7.2-8.6c-4.2-5.3-8.2-10.6-12.3-15.9c-0.4-0.5-1-0.9-1.6-1.1c-1.9-0.8-3.9-1.3-5.8-2.1c-5.9-2.5-11.8-5-17.7-7.6
		c-2.3-1-4.5-2.3-6.6-3.8c-5.1-3.4-10.2-6.9-15.1-10.6c-3.7-2.8-7-6-10.4-9.1c-1.4-1.2-2.8-2.5-4.2-3.8
		c3.6,12.9,12.1,22.8,18.9,33.5c-1.3,3-2.9,5.7-3.8,8.7c-1.3,4.1-2,8.4-3.1,12.6c-0.1,0.6-0.5,1.3-1,1.5c-1.4,0.5-2.8,0.9-4.2,1.1
		c-7.5,1-14.7,3-21.4,6.5c-7,3.6-14.3,6.8-20.9,11c-6.6,4.2-12.7,9.5-18.9,14.3c-1.5,1.2-3,2.5-4.4,3.9c-2.6,2.7-5.4,5.3-7.7,8.2
		c-3.5,4.3-6.8,8.6-9.9,13.2c-1.4,2-2,4.5-3,6.8c-6.5,6.1-13,12.1-18.6,19.2c-5.1,6.4-9.5,13.2-13.7,20.2c-1.7,2.9-3.1,6-4.3,9.1
		c-2.8,7.2-5.9,14.3-8,21.6c-5.2,18.1-5.7,36.7-3.7,55.4c0.7,6.7,2.3,13.4,4,19.9c1.5,5.6,3.4,11.2,5.7,16.5
		c2.8,6.4,5.8,12.8,9.4,18.9c3.8,6.3,8.1,12.3,12.6,18.1c3.1,3.9,6.8,7.4,10.5,10.9c5.1,4.8,10.4,9.3,15.7,14
		c1.2,1.1,2.3,2.2,3.5,3.3c-0.9-0.4-1.9-0.8-2.8-1.4c-3.7-2.2-7.3-4.4-10.9-6.6c-2.5-1.5-5.2-2.9-7.7-4.5c-4.5-2.9-8.9-5.8-13.3-8.8
		c-3-2.1-6-4.2-8.8-6.5c-3.3-2.7-6.5-5.5-9.7-8.3c-2.8-2.4-5.6-4.7-8.3-7.2c-2.6-2.4-5.2-5-7.7-7.5c-3.6-3.6-7.3-7.2-10.8-11
		c-2.9-3.1-5.5-6.5-8.2-9.8c-1.1-1.3-2.4-2.6-3.5-3.9c-0.9-2.9-1.9-5.8-2.7-8.7c-2-7.5-4.2-14.9-5.9-22.5
		c-1.5-6.5-2.6-13.1-3.5-19.7c-1.2-8.7-2.1-17.4-3-26.1c-0.4-4-0.6-8.1-0.5-12.2c0.3-9.3,0.6-18.7,1.4-28c0.7-8.5,1.8-17.1,3.1-25.6
		c0.8-5.5,2.1-11,3.4-16.5c1.2-5.2,2.7-10.4,4.1-15.6c0.3-1.1,0.5-2.3,0.9-3.4c2.5-7.2,5.1-14.4,7.4-21.6c0.5-1.7,1.2-2.4,2.9-2.2
		c4,0.4,8-0.4,10.8-3.2c2.1-2.1,3.2-5.1,4.8-7.8c0.1-0.1-0.2-0.4-0.4-0.6c6.1-7.6,7.9-16.4,6.6-25.9c1.1-1.3,2.4-2.6,3.4-4
		c1.8-2.3,3.4-4.7,5.3-7.4c0.3,0.9,0.5,1.3,0.6,1.7c0.6,3.9,1.1,7.9,1.7,11.8c0.7,4.4,1.9,8.7,2.2,13.1c0.6,8.1,0.4,16.3,2,24.4
		c1.9,9.4,4.8,17.8,12.8,23.8c3.8,2.8,10.1,3.1,13.9,0.5c4.6-3.2,7.5-7.7,10.5-12.2c1.7-3.1,3.7-6.2,5-9.4c2.1-5,4-10,5.7-15.2
		c2.3-6.9,3.8-14.1,3.5-21.4c-0.4-7.5-0.9-14.9-1.8-22.3c-0.6-4.4-1.7-8.8-3.2-12.9c-2.1-5.8-4.7-11.4-7.2-17.1c-0.9-2-2-3.9-3-5.9
		c0.7-0.7,1.3-1.5,2-2.2c1.9-1.9,2.6-1.8,3.9,0.5c1.7,3,3.4,6,5.3,8.8c2.3,3.4,5.4,5.2,9.7,5.4c3.6,0.2,6.5-1.2,9.1-3.2
		C190.1,180.4,191.6,178.5,193.4,176.7"/>
	<path class="st1" d="M267.4,522.3c4-0.6,4.5-1.1,4.2-5.1c-0.3-3.7-0.5-7.5-1.3-11.1c-1.6-7.3-4.5-14.2-9-20.1
		c-4.5-5.9-9.8-10.9-16.5-14.5c-10.2-5.5-20.7-6.6-31.6-4.1c-5.7,1.3-11,4.1-15.8,7.7c-4.4,3.3-7.7,7.1-10.1,12
		c-1.2,2.5-3.3,4.7-5.2,6.7c-2.7,2.8-7,1.8-8.6-1.6c-3.1-6.7-3.4-13.8-2.4-20.9c0.7-5.1,1.6-10.1,2.8-15.1
		c1.7-6.8,3.5-13.5,5.7-20.2c1.6-4.8,3.9-9.4,6-14c0.5-1.1,1.5-2.1,2.3-3.1c1-0.4,2-0.7,2.9-1.2c5.4-2.5,10.8-5.2,16.3-7.7
		c5.5-2.5,11-5.3,16.7-7.1c8-2.6,16.2-4.6,24.3-6.4c4.4-1,9.1-1.4,13.6-1.5c11.2-0.2,22.3-0.6,33.3,2.6c6.9,2,13.8,4.1,20,7.7
		c3.8,2.2,7.3,5,10.6,7.9c3.7,3.3,7.4,6.8,10.3,10.7c3.5,4.9,6.4,10.2,8.2,16.1c0.2,0.5,0.9,0.9,1.4,1.3c2.1,11.4,2.2,22.9,0.2,34.3
		c-0.9,5.6-2.3,11.2-4.2,16.5c-1.9,5.2-4.4,10.2-7,15c-2.3,4.4-5,8.7-7.8,12.7c-2.2,3.2-5,6-7.6,8.9c-2.3,2.6-4.6,5.3-7.3,7.5
		c-3.3,2.9-6.9,5.5-10.6,7.9c-4.3,2.8-8.7,5.6-13.4,7.6c-5.4,2.3-11.2,3.9-16.8,5.7c-12.4,3.8-25,2.4-37.5,0.9
		c-2.8-0.3-5.5-1-8.2-1.5c1.1-1.7,2.1-3.4,3.2-5.1c2.3-3.4,4.5-6.8,7-10.2c4-5.6,8.2-11,12.2-16.6c1.1-1.6,2.2-2.1,4.1-2.1
		C256.7,522.8,262.1,522.5,267.4,522.3"/>
	<path class="st1" d="M303,325.5c-1.4,2.6-2.8,5.3-4.3,7.9c-1.4,2.4-3.2,4.5-4.6,6.9c-2.8,4.5-5.4,9.2-8.1,13.8
		c-2.8,4.6-5.7,9.1-8.6,13.6c-0.4,0.6-1.6,1.1-2.4,1.2c-5.2,0.1-10.4-0.4-15.5,0.1c-6.1,0.6-12.2,1.6-18.1,3.1
		c-5.2,1.4-10.3,3.4-15.2,5.7c-4.7,2.2-9,5.2-13.5,7.9c-6.8,4.1-12.8,9.4-18.2,15.2c-4.1,4.4-7.9,9.1-11.7,13.7
		c-1.3,1.6-2.3,3.6-3.2,5.5c-1.6,3.4-3.1,6.9-4.6,10.4c-3.1,7.2-5.3,14.7-6.7,22.4c-0.9,5.1-2.1,10.2-2.9,15.3
		c-0.6,3.4-0.8,6.8-1.1,10.3c-0.6,5.2,1,10,2.4,14.8c1.7,5.4,7.2,9.6,12.1,9.1c4.2-0.5,7.4-2.9,10-6.2c1.3-1.6,2.4-3.3,3.5-4.9
		c0.5,0.6,1.1,1.2,1.6,1.8c2.4,2.6,4.7,5.2,7.1,7.8c-1.5,3-2.9,6-4.5,9c-1.3,2.4-3,4.7-4.3,7.1c-3.6,6.5-7.1,13.1-10.7,19.6
		c-1.2,2.2-2.6,2.2-5.5,0c-3.8-2.9-7.7-5.4-11.3-8.5c-4-3.4-7.6-7.1-11.4-10.7c-2.5-2.4-5-4.9-7.2-7.6c-2.7-3.2-5.5-6.5-7.8-10.1
		c-3.9-5.9-7.5-12-11-18.2c-1.8-3.3-3-6.9-4.5-10.4c-3.1-7.5-5.5-15.2-6.9-23.2c-0.8-4.4-1.6-8.7-2.4-13.1c1-3.4,1.9-6.8,3-10.1
		c1.5-4.7,2.9-9.5,4.9-14c3.1-7,6.7-13.9,10.2-20.7c1.6-3.2,3.4-6.4,5.4-9.4c2.5-3.7,5.3-7.3,8.2-10.8c3.2-3.9,6.5-7.9,10-11.4
		c3.6-3.6,7.4-6.9,11.4-10c6.3-4.8,12.6-9.6,19.4-13.7c5.4-3.2,11.4-5.4,17.2-8c7.8-3.6,16.1-5.8,24.4-7.6
		c5.1-1.1,10.4-1.7,15.6-1.8c9.9-0.2,19.8-0.2,29.6,0.5c6.8,0.5,13.5,2.2,20.2,3.7C296.4,322.5,299.6,324.2,303,325.5"/>
	<path class="st2" d="M100.4,250.9c0.1,0.2,0.4,0.5,0.4,0.6c-1.5,2.6-2.7,5.7-4.8,7.8c-2.8,2.9-6.8,3.6-10.8,3.2
		c-1.7-0.2-2.4,0.5-2.9,2.2c-2.3,7.3-4.9,14.4-7.4,21.6c-0.4,1.1-0.6,2.2-0.9,3.4c-1.4,5.2-2.9,10.3-4.1,15.6
		c-1.3,5.5-2.6,10.9-3.4,16.5c-1.3,8.5-2.4,17-3.1,25.6c-0.8,9.3-1.1,18.6-1.4,28c-0.1,4.1,0.1,8.2,0.5,12.2
		c0.9,8.7,1.8,17.4,3,26.1c0.9,6.6,2.1,13.2,3.5,19.7c1.7,7.5,3.8,15,5.9,22.5c0.8,2.9,1.8,5.8,2.7,8.7c1.5,4,2.9,7.9,4.4,11.9
		c2.1,5.6,4.2,11.2,6.6,16.6c1.7,3.9,3.9,7.6,5.9,11.4c1,1.9,1.9,3.7,2.9,5.6c-0.9-0.4-1.9-0.5-2.6-1.1c-2.5-1.8-4.8-3.7-7.2-5.6
		c-1.3-1.1-2.6-2.2-3.8-3.4c-6.8-6.6-14.5-12.1-20.4-19.7c-4.4-5.7-9.6-10.9-13.8-16.8c-4.8-6.6-9.1-13.6-13.3-20.7
		c-3.5-6-6.8-12.2-9.8-18.5c-2.2-4.6-4-9.4-5.6-14.3c-2.5-7.5-4.4-15.1-7.1-22.5c-2.5-7-4.1-14.1-5.7-21.4
		c-3.8-18.2-4-36.5-1.8-54.8c0.7-6.4,1.8-12.7,3.2-19c0.3-1.6,1.9-3.3,3.3-4.2c2.3-1.5,5.4,0.7,6.1,3.8c1.1,5.2,2.1,10.5,3.6,15.6
		c1,3.4,2.4,6.8,4.5,9.6c3.1,4,7.2,5.7,13.1,2.8c5.2-2.6,8.3-6.8,10.5-11.5c1.7-3.7,2.1-8.2,2.3-12.4c0.1-4.3-0.3-8.8-1.4-13.1
		c-0.9-3.8-3.1-7.3-4.5-11c-4.1-10.2-6.5-20.6-3-31.5c1.3-3.9,3.4-7.6,5.5-11.1c2.3-3.8,5.2-4.2,8.8-1.4c2.6,2,5.2,4.1,7.6,6.4
		c1.7,1.6,3,3.6,4.4,5.4c2.9,3.8,6.2,7.5,8.7,11.6c2.9,4.8,7,5.5,11.9,4.9c3.3-0.4,6.2-1.9,8.5-4.3
		C99.5,251.3,100,251.2,100.4,250.9"/>
	<path class="st3" d="M374,65.7c-10.6,0.1-21.3,0-31.9,0.3c-5.7,0.2-11.3,0.9-17,1.5c-4.8,0.5-9.6,0.9-14.3,1.6
		c-4.7,0.7-9.4,1.7-14,2.9c-6.3,1.7-12.6,3.6-18.9,5.6c-6.9,2.2-13.7,4.5-20.6,6.9c-5.2,1.8-10.3,3.9-15.4,5.8
		c-2.8,1.1-5.7,2.2-8.5,3.3c0-6.6-0.1-13.2,0.2-19.7c0.4-8.1,1-16.3,1.9-24.4c0.7-6.1,1.8-12.2,3-18.3c0.8-3.9,1.8-7.7,3-11.4
		c0.7-2.4,1.5-4.9,2.7-7.1c0.6-1.1,2.2-2.1,3.5-2.3c4.3-0.9,8.7-1.4,13-2.2c12.2-2.3,24.5-1.6,36.7-0.8c10.7,0.7,21.3,2.1,31.9,3.5
		c4.7,0.6,9.4,1.6,14.1,2.5c5.6,1.1,11.2,2.2,16.8,3.4c4,0.9,8,1.8,12,2.9c7.1,2,14.3,3.9,21.3,6.1c6.4,2,12.8,4,19.1,6.4
		c5.8,2.2,11.4,4.8,17.1,7.3c3.1,1.4,6.3,2.7,9.4,4.3c3.8,1.9,7.5,4,11.3,6c-0.1,0.3-0.1,0.5-0.2,0.8c-4.3-0.6-8.7-0.7-12.8-1.8
		c-6.2-1.8-12.2-4.3-18.3-6.4c-6-2.1-12.1-4.1-18.2-5.9c-7.3-2.2-14.7-4.2-22-6.1c-4.5-1.2-9.1-2.2-13.7-3.2
		c-5.3-1.1-10.7-2.3-16-3.2c-6.8-1.2-13.8-1.8-20.6-3.1c-11.5-2.2-23.1-2-34.7-1.8c-4.5,0-9,0.2-13.4,1.1c-6.7,1.3-13.5,2.6-19.5,6
		c-6.1,3.4-11,7.9-12.2,15.5c-0.9,5.7,0.6,10.6,3,15.4c1.2,2.3,2.9,4.3,4,6.7c0.9,2,2.2,2.7,4.1,2.2c2-0.5,2.5-1.9,2.1-3.8
		c-0.4-3,1-5.5,2.7-7.7c2.6-3.3,5.1-6.9,8.3-9.5c4.4-3.6,9.6-6.1,14.8-8.5c7.3-3.4,15.1-4.9,22.8-6.7c3.9-0.9,8.1-1,12.1-1.1
		c5.4-0.2,10.8-0.1,16.2-0.1c8,1.4,16.1,2.7,24.1,4.2c3.7,0.7,7.4,1.7,11,2.7c7.7,2,15.4,4,23,6.3c6.4,1.9,12.8,4,19.2,6.1
		c2.6,0.8,5,2,7.5,3.4c-0.7-0.2-1.3-0.4-2-0.5c-0.5-0.1-1.1-0.2-1.4,0.1c-2.1,1.7-4.5,1.8-6.9,1.7c-2.2-0.1-4.2,2.5-6.6,0.7
		c0,0-0.3,0.2-0.4,0.3c-3.8,2.8-8.7,2.7-12.9,4.6c-2.9,1.3-5.8,2.7-8.7,3.9c-1.8,0.7-4.6,0.7-5.4,2C377.8,65.7,375.7,64.8,374,65.7"
		/>
	<path class="st4" d="M515.8,212c-1.7,2.2-2.8,4.8-4.2,7c-2.2,3.3-4,7.1-7.5,9.6c-1.7,1.2-2.6,3.5-3.9,5.2c-0.9,1.2-2.1,2.2-3.1,3.3
		c-1,1-1.8,2.1-2.9,2.9c-2.1,1.7-4.3,3.1-6.4,4.7c-1.3,1-2.6,2-3.8,3.1c-3.1,2.8-7.3,4.1-10.4,6.6c-2.6,2.1-6,2.2-8.4,4.6
		c-1.5,1.5-4.4,1.7-6.6,2.5c-3.5,1.1-6.9,2.4-10.5,3.1c-3.3,0.7-6.8,0.7-10.2,1.1c-2.1,0.2-4.2,0.6-6.3,0.9c-3,0.4-6,0.9-9,1.1
		c-1.7,0.1-3.4-0.4-5.1-0.7c-3-0.4-6-0.7-8.9-1.4c-3.3-0.7-6.5-1.6-9.7-2.5c-1.4-0.4-2.7-0.8-4-1.3c-4.2-1.7-8.4-3.5-12.5-5.3
		c-0.4-0.1-0.7-0.2-1.1-0.4c-0.1-0.1-0.2-0.1-0.3-0.1c-0.1-1.7-1.3-1.9-2.6-2l0,0c0.2-0.2,0.6-0.7,0.6-0.7c-1.5-1.3-3-2.6-4.4-3.9
		c-0.4-0.4-0.8-0.7-1.2-1.1c-1.8-2.2-3.6-4.5-5.5-6.7c-0.3-0.4-0.9-0.7-0.9-1.1c-0.3-2.3-2.3-3.5-3.4-5.3c-1.1-1.8-2.8-3.2-3.6-5
		c-1.8-4.2-3.1-8.7-4.8-12.9c-0.8-2-1.2-4-1.4-6.2c-0.2-2.3-1.1-4.5-1.6-6.8c-0.4-1.7-0.8-3.3-1.3-5.4c1.1-1.3,1.2-3-0.4-4.7
		c0.2-1.2,0.1-2.2,0-3.3c0-1.3,0.1-2.5,0.2-4.4c-0.1-0.7-0.5-2.1-0.3-3.5c0.2-2.5,0.6-5,1.2-7.4c1.4-5.4,0.1-11.4,3.6-16.5
		c1.2-1.8,1.4-4.2,2.2-6.3c1.6-3.9,3.3-7.7,5-11.5c0.1-0.2,0.1-0.5,0.3-0.7c1.4-1.8,3.4-3.5,4.1-5.5c1.3-3.8,4.6-6.1,6.4-9.3
		c2.6-4.5,7.3-7.1,10.2-11.4c1.7-2.5,4.8-4.1,7.4-6c1.8-1.3,3.9-2.4,5.8-3.6c5-3,9.8-6.2,15-8.7c4.6-2.3,9.7-3.7,14.6-5.4
		c0.8-0.3,1.7-0.6,2.6-0.7c3.4-0.4,7-0.3,10.2-1.4c2.1-0.7,4-0.9,6.1-0.8c0.6,0.6,1.2,1.3,1.9,1.8c3.7,2.6,7.6,4.9,11.1,7.7
		c4.4,3.5,8.6,7.3,12.8,11.1c3.7,3.4,7.5,6.8,10.8,10.6c4.2,4.8,8.3,9.7,11.9,14.9c3.5,5,6.7,10.3,9.5,15.8
		c2.8,5.7,5.3,11.7,7.3,17.8c2.1,6.8,4,13.8,5,20.8c0.9,7,0.5,14.3,0.7,21.4C515.4,210.3,515.6,211.1,515.8,212 M427.1,247.4
		c4.6-0.7,10.6-1.3,16.4-2.7c5-1.2,10.1-2.6,14.7-5c5.7-3,11.2-6.5,16.1-10.6c4.8-4.1,9-9,13.1-13.9c2.2-2.7,4.2-5.8,5.4-9
		c2.5-6.5,5.1-13.1,6.4-19.9c1.9-9.2,1.5-18.6-0.9-27.8c-1.7-6.8-4.1-13.2-7.9-19c-4.5-6.8-9.9-12.8-16-18c-5.3-4.5-11.4-7.8-18-9.9
		c-5.3-1.7-10.8-3.1-16.4-3.7c-9.4-1-18.8-0.9-28.1,2c-6.7,2.1-13.2,4.3-19.3,7.8c-2.4,1.4-4.7,3-6.8,4.7c-2.5,2.1-4.6,4.6-7.1,6.7
		c-3.4,2.8-6,6.3-8.5,9.9c-5.1,7.1-9,14.8-10.9,23.3c-2.8,12.5-3.3,25,1,37.3c1.6,4.5,3,9.1,5.2,13.3c2,3.8,4.9,7.1,7.6,10.5
		c2.3,2.8,4.6,5.6,7.4,7.7c3.7,2.9,7.7,5.2,11.7,7.6c6.2,3.9,13.3,5.5,20.3,7.2C416.8,246.9,421.3,246.8,427.1,247.4 M427.1,261.4
		c1.1-0.1,1.9,0,2.6-0.1c0.7-0.1,1.4-0.6,2.1-0.6c10.2-0.4,20.1-2.2,29.5-6.4c3.3-1.5,6.6-2.9,9.8-4.5c1.6-0.8,3-4.1,2-4.8
		c-1-0.7-2.8-0.5-4.2-0.5c-0.5,0-1.1,0.3-1.6,0.6c-4,1.8-8,3.6-12,5.4c-1.3,0.5-2.7,0.8-4.1,1.1c-6.7,1.3-13.5,2.8-20.3,3.9
		c-5.5,0.8-10.8-0.8-16.1-2c-1.2-0.3-3.3,0.3-3.7,1.2c-0.9,1.6-0.1,3.4,1.9,4.2c0.5,0.2,1.1,0.6,1.6,0.7
		C418.9,260.1,423.2,260.8,427.1,261.4"/>
	<path class="st5" d="M303,325.5c-3.3-1.3-6.6-3-10-3.8c-6.7-1.6-13.4-3.2-20.2-3.7c-9.8-0.7-19.8-0.7-29.6-0.5
		c-5.2,0.1-10.5,0.7-15.6,1.8c-8.3,1.8-16.6,3.9-24.4,7.6c-5.7,2.7-11.8,4.8-17.2,8c-6.8,4.1-13.1,8.9-19.4,13.7
		c-4,3.1-7.8,6.4-11.4,10c-3.6,3.6-6.8,7.5-10,11.4c-2.9,3.5-5.6,7.1-8.2,10.8c-2,3-3.8,6.1-5.4,9.4c-3.5,6.9-7,13.7-10.2,20.7
		c-2,4.5-3.4,9.3-4.9,14c-1.1,3.3-2,6.7-3,10.1c-0.5-3.3-1.2-6.5-1.4-9.8c-0.1-2.2,0.5-4.5,0.6-6.8c0.3-4.1,0.3-8.2,0.6-12.2
		c0.4-4.2,0.6-8.5,1.6-12.6c1.8-7.3,3.6-14.7,6.2-21.7c2.4-6.5,5.7-12.8,9-18.9c2.8-5.1,6.1-10,9.6-14.6c3.1-4,6.7-7.6,10.2-11.3
		c2.4-2.6,4.7-5.3,7.4-7.6c3.3-2.8,6.7-5.4,10.3-8c3.5-2.6,7.1-5.1,10.8-7.3c3.5-2.1,7.1-3.9,10.8-5.5c5.2-2.2,10.6-4.2,15.9-6.3
		c8.4-3.3,17.1-5.2,26.1-5.9c7-0.6,14-1.7,21-1.3c9.1,0.5,18.2,2,27.3,3.4c1.3,0.2,2.5,1.9,3.5,3.1c2.1,2.6,4,5.4,6.2,8.1
		c2.3,2.9,4.6,5.8,7.3,8.4c3.5,3.5,7.3,6.7,11.4,10.4C306.5,320.6,304.7,323.1,303,325.5"/>
	<path class="st6" d="M388,446.1c0,0.3,0,0.6,0,0.9c0,1-0.1,2-0.1,3c-0.8,3.6-1.5,7.3-2.5,10.8c-2,6.8-4,13.5-7.3,19.8
		c-1.7,3.2-2.9,6.8-4.8,10c-2.5,4.4-5.3,8.6-8.1,12.8c-2.1,3.1-4.4,6.1-6.8,8.9c-3.3,3.7-6.7,7.4-10.3,10.8
		c-3.9,3.7-7.9,7.4-12.2,10.5c-4.3,3.1-9,5.6-13.6,8.2c-4.2,2.3-8.5,4.6-12.8,6.6c-2.4,1.1-5,1.9-7.5,2.5
		c4.9-3.7,10.1-7.2,14.7-11.3c4.2-3.8,7.9-8.2,11.5-12.6c2.9-3.5,5.7-7.1,8-11c2.8-4.8,5.1-9.9,7.6-14.8c2.9-5.8,4.6-12.1,6.2-18.4
		c3.8-14.9,3.7-29.8,0.8-44.7c-1.3-6.7-3.6-13.4-6.6-19.7c-2.5-5.2-5.4-10.2-8.5-14.9c-2-3-4.8-5.5-7.2-8.2
		c-0.8-0.9-1.4-1.8-2.1-2.7c0.4-0.7,0.6-1.6,1.1-2.2c3.3-4.5,6.7-8.9,10.1-13.3c4.1-5.4,8.2-10.8,12.3-16.2c1.2-1.6,2.4-3.2,3.7-4.9
		c0.8,1,1.4,1.7,2,2.5c2.8,3.5,5.9,6.7,8.5,10.4c2.7,4,5.1,8.2,7.3,12.5c2.7,5.4,5.5,10.9,7.6,16.5c2.4,6.5,4.6,13.1,5.9,19.8
		c1.6,8.4,2.1,17,3.1,25.5C387.9,444.1,387.9,445.1,388,446.1"/>
	<path class="st7" d="M156.3,312.9c1-2.3,1.6-4.8,3-6.8c3.1-4.5,6.5-8.9,9.9-13.2c2.4-2.9,5.1-5.6,7.7-8.2c1.4-1.4,2.8-2.7,4.4-3.9
		c6.2-4.9,12.2-10.1,18.9-14.3c6.6-4.2,13.9-7.4,20.9-11c6.7-3.5,13.9-5.4,21.4-6.5c1.4-0.2,2.9-0.6,4.2-1.1c0.5-0.2,0.9-0.9,1-1.5
		c1-4.2,1.8-8.5,3.1-12.6c0.9-2.9,2.5-5.7,3.8-8.7c-6.8-10.7-15.3-20.6-18.9-33.5c1.4,1.3,2.7,2.6,4.2,3.8c3.5,3,6.8,6.3,10.4,9.1
		c4.9,3.7,10,7.2,15.1,10.6c2.1,1.4,4.3,2.7,6.6,3.8c5.8,2.6,11.8,5.1,17.7,7.6c1.9,0.8,3.9,1.4,5.8,2.1c0.6,0.2,1.2,0.6,1.6,1.1
		c4.1,5.3,8.2,10.7,12.3,15.9c2.3,2.9,4.9,5.7,7.2,8.6c1.6,2,3.1,4.2,4.6,6.3c1,1.4,1.8,2.8,2.7,4.3c-1.1-0.1-2.2-0.5-3.1-0.2
		c-1,0.2-2.7,0.9-2.8,1.6c-0.2,1,0.5,2.7,1.3,3.2c2,1.1,4.1,2.9,6.6,0.6c2.2,3.2,4.3,6.2,6.2,9c-3.2,5.2-6.1,10.3-9.3,15.3
		c-1.3,2-2.8,3.8-4.2,5.7c-1-0.5-2.2-0.8-3-1.6c-2.8-2.5-5.4-5.2-8-7.9c-3.4-3.4-7-6.8-10.1-10.5c-3.9-4.7-7.7-9.5-11.1-14.5
		c-4.4-6.5-8.4-13.3-12.7-19.9c-0.2-0.4-1-0.4-1.5-0.6c-3-1.7-3.5-1.6-4.8,0.9c-0.5,0.3-1.4,0.6-1.5,1c-1.3,3.6-2.5,7.3-3.5,11
		c-0.5,1.7-0.5,3.5-0.8,5.1c-1.6,0.5-3,1.1-4.4,1.4c-4.9,1.2-9.9,2.4-14.8,3.5c-6.2,1.4-12.1,3.6-17.7,6.6
		c-6.6,3.5-13.1,7.2-19.6,10.8c-0.4,0.2-0.6,0.7-0.9,1.1c-4.2,1.5-8.5,2.8-12.5,4.7c-5.4,2.5-10.9,5.1-15.9,8.3
		C169.2,303.6,162.8,308.4,156.3,312.9"/>
	<path class="st8" d="M444.4,87.6c-2.1-0.1-3.9,0-6.1,0.8c-3.2,1.1-6.8,0.9-10.2,1.4c-0.9,0.1-1.7,0.4-2.6,0.7
		c-4.9,1.8-9.9,3.2-14.6,5.4c-5.2,2.5-10,5.8-15,8.7c-2,1.2-4,2.2-5.8,3.6c-2.6,1.9-5.7,3.5-7.4,6c-2.9,4.3-7.5,6.8-10.2,11.4
		c-1.9,3.2-5.1,5.5-6.4,9.3c-0.7,2.1-2.7,3.7-4.1,5.5c-0.1,0.2-0.2,0.5-0.3,0.7c-1.7,3.8-3.4,7.7-5,11.5c-0.9,2.1-1,4.5-2.2,6.3
		c-3.5,5.1-2.2,11.1-3.6,16.5c-0.6,2.4-1,4.9-1.2,7.4c-0.1,1.4,0.3,2.8,0.3,3.5c-0.1,1.9-0.2,3.2-0.2,4.4c0,1.1,0.2,2.2,0,3.3
		c1.7,1.7,1.5,3.4,0.4,4.7c0.5,2.1,0.9,3.7,1.3,5.4c0.6,2.3,1.4,4.5,1.6,6.8c0.2,2.2,0.6,4.2,1.4,6.2c1.8,4.2,3,8.7,4.8,12.9
		c0.8,1.9,2.5,3.3,3.6,5c1.1,1.8,3.1,3,3.4,5.3c0.1,0.4,0.6,0.7,0.9,1.1c1.8,2.2,3.6,4.5,5.5,6.7c0.3,0.4,0.8,0.8,1.2,1.1
		c1.5,1.3,3,2.6,4.4,3.9c0,0-0.4,0.5-0.6,0.7c-1.3-0.5-2.6-0.9-3.7-1.5c-1.3-0.7-2.4-1.7-3.5-2.6c-2-1.6-4-3.2-6-4.9
		c-2.2-1.9-4.4-3.9-6.5-6c-1.1-1-2.1-2-3-3.2c-2.1-2.5-4.4-4.8-6-7.6c-1.6-3-4-5.3-5.5-8.2c-2.1-3.8-3.3-8.1-4.7-12.2
		c-1.2-3.5-2.2-7.1-3.2-10.7c-0.2-0.5-0.1-1.1-0.2-1.7c-0.3-1.5-0.6-3.1-0.9-4.6c-0.1-0.6-0.6-1.1-0.5-1.6c1-5.1-0.7-10.2-0.2-15.3
		c0.5-4.4,1.1-8.8,1.7-13.2c0.5-3.3,0.9-6.6,1.8-9.8c1-3.3,2.8-6.4,4.1-9.6c0.8-1.9,1-4,1.9-5.7c3-5.5,6.1-11.1,9.6-16.3
		c2.5-3.7,5.7-6.9,8.7-10.1c2.8-3,5.6-6,8.7-8.5c2.7-2.2,5.9-3.6,8.9-5.5c1-0.6,1.7-1.5,2.7-2.1c4-2.4,7.9-4.9,12-6.9
		c2.7-1.3,5.8-1.8,8.7-2.8c2.2-0.8,4.3-1.8,6.5-2.6c2.9-1,5.8-2.1,8.8-2.6c3.3-0.6,6.7-0.5,10-0.7c2.6-0.2,5.2-0.3,7.8-0.5l0,0
		c2.5,0.2,5,0.3,7.6,0.5c3.6,0.3,7.3,0.4,10.8,1.1c4,0.7,8,1.8,11.8,3.1c2.4,0.8,4.4,2.5,6.7,3.6c1.5,0.7,3.3,1,4.8,1.8
		c2.8,1.4,5.7,2.6,8.2,4.7c1.2,1.1,2.9,1.6,4.3,2.5c0.4,0.2,0.6,0.8,0.8,1.2c-0.9-0.3-1.8-0.4-2.6-0.8c-1.5-0.7-2.8-2.2-4.7-1.7
		c-0.1,0-0.3-0.1-0.5-0.1c-2.8-1.6-5.7-2.5-8.9-3c-3.9-0.6-7.7-1.7-11.6-2.2c-3.5-0.5-7.1-0.4-10.7-0.6c0.2-0.1,0.5-0.1,0.7-0.2
		c0-0.1-0.1-0.2-0.1-0.3c-0.3,0.1-0.6,0.1-0.9,0.2C449.3,87,446.8,87.3,444.4,87.6"/>
	<path class="st2" d="M444.4,87.6c2.4-0.3,4.8-0.5,7.2-0.8c0.1,0.1,0.1,0.2,0.2,0.2c3.6,0.2,7.2,0.1,10.7,0.6
		c3.9,0.5,7.7,1.7,11.6,2.2c3.2,0.5,6.1,1.4,8.9,3c0.1,0.1,0.3,0.2,0.5,0.1c2-0.5,3.2,1,4.7,1.7c0.8,0.4,1.7,0.5,2.6,0.8
		c1.2,0.7,2.3,1.4,3.5,2.2c1.5,1,3,2.1,4.6,3.1c0,0-0.3,0.4-0.3,0.4c2,2.1,3.8,4.1,5.7,6.2c0.8,0.9,1.6,1.8,2.4,2.6
		c2.8,2.8,4.7,6.1,6.7,9.4c1.2,2,2.5,3.9,3.5,6c1.2,2.5,2.1,5.2,3.5,7.6c1.6,2.6,1.1,5.8,3,8.2c0.3,0.3,0.8,0.8,0.7,1
		c-1.6,3,1.4,5.2,1.4,8c0,1.8,0.8,3.7,1.2,5.6c0.1,0.7,0.2,1.8-0.2,2.1c-1.3,1-0.7,1.5,0.1,2.4c1.2,1.4,0.6,7.1-0.6,8.1
		c0.3,0.9,0.7,1.6,0.7,2.3c-0.3,3.5-0.5,6.9-1,10.4c-0.4,3-0.9,5.9-1.8,8.8c-1.7,5.7-3.7,11.3-5.7,16.9c-0.7,1.9-1.7,3.6-2.6,5.3
		c-0.1-0.9-0.4-1.7-0.4-2.6c-0.2-7.1,0.2-14.4-0.7-21.4c-0.9-7-2.8-14-5-20.8c-1.9-6.1-4.4-12-7.3-17.8c-2.7-5.5-6-10.8-9.5-15.8
		c-3.6-5.2-7.7-10.2-11.9-14.9c-3.3-3.8-7.1-7.2-10.8-10.6c-4.2-3.8-8.4-7.6-12.8-11.1c-3.5-2.8-7.4-5.1-11.1-7.7
		C445.6,88.8,445.1,88.1,444.4,87.6"/>
	<path class="st9" d="M345.3,441.4c-0.5-0.4-1.2-0.8-1.4-1.3c-1.8-5.8-4.6-11.2-8.2-16.1c-2.9-4-6.6-7.4-10.3-10.7
		c-3.3-2.9-6.8-5.7-10.6-7.9c-6.2-3.6-13.1-5.7-20-7.7c-11-3.2-22.2-2.8-33.3-2.6c-4.5,0.1-9.2,0.5-13.6,1.5
		c-8.2,1.8-16.4,3.9-24.3,6.4c-5.7,1.8-11.2,4.6-16.7,7.1c-5.5,2.5-10.8,5.1-16.3,7.7c-1,0.4-2,0.8-2.9,1.2c1.7-2.5,3.2-5.1,5-7.4
		c2.3-2.9,4.8-5.6,7.3-8.3c1.3-1.4,2.5-2.8,3.9-4c4.6-3.5,9.3-7,14.1-10.3c6.6-4.6,13.8-7.9,21.6-10.1c3.6-1,7.1-1.9,10.7-2.8
		c9.1-2.4,18.3-2.5,27.4-1c7.2,1.2,14.2,3.5,21,5.9c4.1,1.4,8.1,3.6,11.6,6.2c5.1,3.9,9.9,8.4,14.5,12.8c2.6,2.5,4.8,5.4,7,8.3
		c1.4,1.8,2.6,3.9,3.8,5.9c1,1.8,2,3.6,2.8,5.4c2.3,5.3,4.4,10.7,5.3,16.5C344.1,438,344.8,439.7,345.3,441.4"/>
	<path class="st4" d="M519.3,279c-0.9,5.6-1.8,11.2-2.9,16.8c-0.9,4.9-2.1,9.7-3.2,14.5c-0.1,0.6-0.5,1.4-1,1.6
		c-3.2,1.4-6.5,2.8-9.8,4c-9.8,3.7-20,5.3-30.3,6.8c-10.5,1.4-20.8,1.4-31.3,0.6c-6.7-0.5-13.5-1.6-20.1-2.8
		c-4.9-0.9-9.9-2.1-14.7-3.6c-4.4-1.3-8.6-3.2-12.8-4.9c0.4-0.3,0.9-0.5,1.2-0.9c2.6-3.1,5.1-6.2,7.7-9.2c0.6-0.7,1.4-1.6,2-1.6
		c2.4,0.1,5.1,0,6.9,1.1c2.1,1.3,4.1,1.4,6.3,1.6c2.6,0.3,5.6,0,7.7,1.2c2.5,1.4,4.9,0.7,7.2,1c2.8,0.4,5.7,0.3,8.6,0.3
		c2.8,0,5.6-0.2,8.4-0.5c1.8-0.2,3.6-0.7,5.4-0.9c1-0.1,2.2,0.5,3.2,0.3c3.7-0.7,7.4-1.7,11.1-2.3c1.1-0.2,2.2,0.2,3.1-1
		c0.2-0.4,1-0.4,1.6-0.5c3.7-0.5,7.2-1.6,10.6-3.2c2.2-1,4.4-1.7,6.8-2.6c0.2,0.3,0.5,0.8,0.8,1.3c-1.6,2.9-3.2,5.7-1,9
		c1.1,1.7,4,2.5,5.8,1.5c1.6-0.9,1.5-2.3,1-3.7c-1.2-3-0.8-4.2,1.6-6.6c1.5-1.5,2.8-3.4,1.8-5.8c1-0.6,1.9-1.1,2.9-1.7
		c2.4-1.6,4.6-3.6,7.1-4.6c2.7-1.1,4.7-2.6,5.8-4.4C518,279.4,518.7,279.2,519.3,279"/>
	<path class="st8" d="M519.3,279c-0.7,0.2-1.3,0.4-2.5,0.7c-1.1,1.8-3.1,3.4-5.8,4.4c-2.6,1-4.8,3-7.1,4.6c-0.9,0.6-1.9,1.1-2.9,1.7
		c-1.9-0.8-3.5-0.7-5,0.9c-1.4,1.6-2.8,3.1-4.2,4.7c-0.3-0.5-0.6-1-0.8-1.3c-2.4,0.9-4.7,1.6-6.8,2.6c-3.4,1.6-6.9,2.6-10.6,3.2
		c-0.6,0.1-1.4,0.2-1.6,0.5c-0.8,1.3-1.9,0.8-3.1,1c-3.7,0.6-7.4,1.6-11.1,2.3c-1,0.2-2.1-0.4-3.2-0.3c-1.8,0.2-3.6,0.7-5.4,0.9
		c-2.8,0.3-5.6,0.4-8.4,0.5c-2.9,0-5.7,0.1-8.6-0.3c-2.4-0.3-4.7,0.5-7.2-1c-2.1-1.2-5.1-0.9-7.7-1.2c-2.2-0.2-4.2-0.3-6.3-1.6
		c-1.9-1.1-4.6-1-6.9-1.1c-0.6,0-1.5,0.9-2,1.6c-2.6,3.1-5.1,6.2-7.7,9.2c-0.3,0.4-0.8,0.6-1.2,0.9c-3.5-1.6-7-3.1-10.5-4.7
		c-0.3-0.1-0.5-0.4-0.8-0.6c-3.2-1.7-3.3-1.7-1.3-4.8c2.1-3.3,4.2-6.7,6.4-10c1.1-1.7,2.9-1.8,4.7-1.3c2.2,0.7,4.4,1.7,6.6,2.2
		c3.6,0.7,7.2,1.1,10.8,1.9c1.6,0.4,3.2,1,4.8,1.1c3.5,0.2,7,0.1,10.5,0.1c1,0,2-0.3,2.9-0.4c2.4-0.2,4.9-0.2,7.3-0.4
		c0.7-0.1,1.3-0.6,2-0.7c3.8-0.4,7.6-0.7,11.4-1.1c1-0.1,2-0.3,2.8-0.8c1.1-0.7,2.1-1.8,3.4-0.3c0.2,0.2,0.8,0.1,1.2-0.1
		c2.2-0.7,4.4-1.5,6.6-2.3c0.2-0.1,0.6,0,0.7-0.1c2.7-2.7,7.2-1.9,9.9-4.7c0.3-0.4,1.1-0.5,1.7-0.4c2.4,0.5,4.2-1,6-1.9
		c4.8-2.5,9.3-5.5,13.9-8.3c1.4-0.8,2.8-1.5,4.2-2.4c0.8-0.5,1.4-1.3,2.1-1.9c0.2-0.2,0.3-0.6,0.4-0.6c3.3,0.3,3.6-3.7,5.9-4.3
		c2.3-0.7,3.2-2.6,4.7-4c1.3-1.3,3-2.1,4.4-3.3c0.7-0.6,1.1-1.8,1.8-2.5c1.4-1.3,3-2.4,4.9-4c-0.3,5.1-0.6,9.7-0.9,14.3
		c-0.2,2.4-0.4,4.8-0.8,7.2C520.5,275,519.8,277,519.3,279"/>
	<path class="st3" d="M159.4,276.9c-3,4.5-5.9,9-10.5,12.2c-3.8,2.6-10.1,2.3-13.9-0.5c-8-6-10.9-14.4-12.8-23.8
		c-1.6-8.1-1.4-16.3-2-24.4c-0.3-4.4-1.5-8.7-2.2-13.1c-0.6-3.9-1.1-7.9-1.7-11.8c-0.1-0.4-0.3-0.9-0.6-1.7
		c-1.9,2.7-3.6,5.1-5.3,7.4c-1,1.4-2.3,2.6-3.4,4c-1.4-4.1-2.8-8.1-4.2-12.2c-1.4-4.3-4.4-7.5-7.3-10.8c-1.4-1.5-3.2-2.6-4.9-3.9
		c-2-1.6-4.4-5.5-3.2-7.9c0.8-1.6,1.6-3.2,2.7-4.6c2.3-3.1,4.5-6.2,8.1-8.1c2.9-1.6,7.9-1.6,10.7,0.2c6.1,3.7,9.5,9.1,12.3,15.6
		c2.1,5.1,2.4,10.2,3,15.4c1.2,10.4,2,20.8,3.2,31.1c0.5,4.7,1.3,9.5,2.5,14.1c1.6,6.6,3.5,13.2,6.9,19.1c3.2,5.5,9.3,9.7,15.7,7.7
		C155,279.9,157.1,278.2,159.4,276.9"/>
	<path class="st10" d="M468.9,339c-4.9,3.6-9.6,7.7-14.9,10.8c-4.6,2.7-9.8,4.5-14.7,6.6c-0.4-0.2-0.9-0.5-1.3-0.4
		c-8.8,0.2-17.4-1.8-25.9-3.8c-5.8-1.3-11.5-3.4-17.1-5.4c-6-2.2-12-4.6-17.8-7.2c-2.8-1.2-5.2-3-7.8-4.6c3.5-4.7,7.1-9.4,10.5-14.2
		c1.7-2.4,2.6-2.7,5-1.2c4.2,2.5,8.4,5.1,12.8,7.2c3.9,1.9,8.1,3.3,12.2,4.8c4.9,1.7,9.9,3.7,15,4.8c6.3,1.3,12.8,2.1,19.3,2.6
		c8,0.7,16,1.5,23.8-0.8C468.2,338.1,468.6,338.7,468.9,339"/>
	<path class="st11" d="M97.4,510c-1-1.9-1.9-3.7-2.9-5.6c-2-3.8-4.2-7.5-5.9-11.4c-2.4-5.5-4.5-11.1-6.6-16.6
		c-1.5-3.9-2.9-7.9-4.4-11.9c1.2,1.3,2.4,2.6,3.5,3.9c2.8,3.2,5.4,6.6,8.2,9.8c3.5,3.8,7.2,7.4,10.8,11c2.5,2.5,5.1,5.1,7.7,7.5
		c2.7,2.5,5.5,4.8,8.3,7.2c3.2,2.8,6.4,5.6,9.7,8.3c2.9,2.3,5.8,4.5,8.8,6.5c4.4,3,8.8,6,13.3,8.8c2.5,1.6,5.1,3,7.7,4.5
		c3.6,2.2,7.3,4.4,10.9,6.6c0.9,0.5,1.9,0.9,2.8,1.4l0,0c0.2,0.2,0.3,0.4,0.5,0.6c0.8,0.3,1.7,0.6,2.5,0.9l0,0c1,0.7,2,1.3,3,2l0,0
		c0.4,0.2,0.7,0.3,1.1,0.5c-0.6,1.5-1.1,3-1.8,4.4c-0.1,0.3-1,0.4-1.5,0.3c-2.1-0.6-4.2-1.2-6.3-2c-7.3-2.7-14.6-5.3-21.8-8.3
		c-5.6-2.3-11.2-4.8-16.5-7.7c-6.2-3.3-12.2-7-18.1-10.7c-3.8-2.4-7.5-4.9-11.2-7.5C98.4,512,97.9,510.9,97.4,510"/>
	<path class="st3" d="M193.4,176.7c-1.7,1.8-3.3,3.7-5.2,5.2c-2.6,2-5.4,3.4-9.1,3.2c-4.3-0.2-7.4-2.1-9.7-5.4
		c-1.9-2.8-3.6-5.8-5.3-8.8c-1.3-2.3-2-2.4-3.9-0.5c-0.7,0.7-1.3,1.5-2,2.2c-1-1.3-2.2-2.6-2.9-4.1c-2.1-4.3-6-7-9.3-10.2
		c-3.8-3.7-7.9-7.1-11.6-10.8c-2.7-2.7-2.2-8.6-0.3-11.9c2.8-4.9,7.4-6.3,12.1-8c2.5-0.9,9.4,2,10.7,3.6c3.1,3.8,5.4,8.1,7.1,12.7
		c2.2,5.9,4.1,11.9,6.9,17.5c2.4,4.8,5.6,9.2,8.8,13.5c2.2,2.9,7.7,3.6,11.1,2.2C191.5,176.9,192.5,176.9,193.4,176.7"/>
	<path class="st9" d="M229.3,132.5c-4,1.4-8.2,2.6-12.1,4.3c-3.6,1.5-7,3.6-10.4,5.6c-0.7,0.4-0.9,1.8-1.4,2.7
		c-0.5-0.7-1-1.4-1.4-2.2c-2.9-5.4-6.1-10.7-8.6-16.3c-1.8-3.8-1.9-8,0.9-11.7c1.1-1.5,2.1-3.1,3.1-4.6c2.6-3.8,6.5-6,10.5-8
		c5.1-2.4,10.3-4.4,15.5-6.6c0.6-0.2,1.2-0.2,2.3-0.4c0,1.5-0.1,2.8,0,4.1c0.5,10.5,1.1,20.9,1.6,31.4
		C229.4,131.3,229.3,131.9,229.3,132.5"/>
	<path class="st12" d="M468.9,339c-0.3-0.3-0.7-0.9-0.9-0.9c-7.9,2.4-15.9,1.5-23.8,0.8c-6.5-0.6-12.9-1.3-19.3-2.6
		c-5.1-1.1-10-3-15-4.8c-4.1-1.4-8.3-2.9-12.2-4.8c-4.4-2.1-8.6-4.7-12.8-7.2c-2.5-1.5-3.3-1.2-5,1.2c-3.4,4.8-7,9.5-10.5,14.2
		c-1.4,1.7-2.9,3.4-4.3,5.2c-1.2,1.5-2.2,3.2-3.2,4.8c-2.3-1-4.6-2.1-7.1-3.2c7-10.7,13.9-21.2,20.6-31.5c5.6,2.6,10.8,5.4,16.2,7.5
		c6.3,2.4,12.7,4.6,19.2,6.2c9.9,2.5,20,4.3,30.3,4.6c4.8,0.1,9.7,1,14.5,0.9c7.6-0.2,15.3-0.9,23.2-1.5c-0.5,0.7-0.8,1.6-1.4,2.2
		C474.6,333.1,471.7,336.1,468.9,339"/>
	<path class="st8" d="M388,446.1c-0.1-1-0.1-2-0.2-3c-1-8.5-1.5-17.1-3.1-25.5c-1.3-6.7-3.5-13.4-5.9-19.8
		c-2.1-5.7-4.8-11.1-7.6-16.5c-2.2-4.3-4.6-8.5-7.3-12.5c-2.5-3.7-5.6-7-8.5-10.4c-0.6-0.8-1.2-1.5-2-2.5c-1.3,1.7-2.5,3.3-3.7,4.9
		c-4.1,5.4-8.2,10.8-12.3,16.2c-3.4,4.4-6.7,8.9-10.1,13.3c-0.5,0.6-0.7,1.5-1.1,2.2c-2.7-1.4-2.9-2.9-1.1-5.5c3.1-4.6,6-9.2,9-13.8
		c4.6-7,9.3-14,14-21c1-1.5,2.2-2.9,2.9-4.5c0.8-1.8,1.9-1.2,3-0.7c4.8,2,9.5,4,14.3,6c2,0.8,3.6,2,4.5,4.1c3,6.9,6.3,13.6,9,20.5
		c2,5,3.7,10.1,4.7,15.4c1.3,6.6,2.1,13.3,2.6,20c0.5,6.9,0.5,13.8,0.5,20.7c0,3.9-0.6,7.8-1,11.6
		C388.7,445.5,388.3,445.8,388,446.1"/>
	<path class="st4" d="M272.3,245.1c0.5,0.2,1.3,0.2,1.5,0.6c4.3,6.6,8.3,13.4,12.7,19.9c3.4,5,7.2,9.9,11.1,14.5
		c3.1,3.7,6.7,7,10.1,10.5c2.6,2.7,5.3,5.3,8,7.9c0.8,0.7,2,1.1,3,1.6c-1.7,3.1-3.3,6.2-5.1,9.2c-0.9,1.6-2.1,3.1-3.7,5.6
		c-5.2-5.6-10.4-10.9-15.2-16.4c-2.9-3.4-5.3-7.2-8-10.8c-4.9-6.6-8.3-14-10.9-21.6c-1.5-4.3-1.7-8.9-2.5-13.4
		C273,250,272.6,247.5,272.3,245.1"/>
	<path class="st12" d="M204.3,286.4c0.3-0.4,0.5-0.9,0.9-1.1c6.5-3.6,13-7.3,19.6-10.8c5.6-3,11.5-5.2,17.7-6.6
		c4.9-1.1,9.9-2.3,14.8-3.5c1.4-0.3,2.7-0.9,4.4-1.4c0.2-1.5,0.3-3.3,0.8-5.1c1-3.7,2.3-7.3,3.5-11c0.2-0.5,1-0.7,1.5-1
		c0.5,5.6,0.4,11.4,1.8,16.9c1.6,6.5,4.5,12.8,6.8,19.2c-3.5-0.4-7.4-1.1-11.2-1.3c-8.9-0.3-17.9-0.5-26.8-0.3
		c-5.1,0.1-10.2,0.8-15.3,1.5c-4.7,0.7-9.3,2-14,3C207.2,285.4,205.8,286,204.3,286.4"/>
	<path class="st13" d="M338.9,27.9c-5.4,0-10.8-0.1-16.2,0.1c-4.1,0.1-8.2,0.2-12.2,1.1c-7.7,1.8-15.5,3.3-22.8,6.7
		c-5.2,2.4-10.4,5-14.8,8.5c-3.2,2.6-5.7,6.2-8.3,9.5c-1.8,2.2-3.1,4.6-2.7,7.7c-4.6-5.7-7.7-11.9-6.9-19.5c0.4-3.5,2-6.3,4.9-8.5
		c5.5-4,11.8-5.6,18.3-7c9.1-1.9,18.4-2.1,27.6-2c5.7,0.1,11.4,0.4,17.1,1C328.2,26.1,333.5,27.1,338.9,27.9"/>
	<path class="st14" d="M167.4,241.6c0.4,6.3-2.8,11-5.3,15.7c-2,3.6-4.6,6.9-8.3,9c-0.9,0.5-1.8,1.2-2.8,1.6c-5,2.1-8.4-1.2-9-6.5
		c-0.7-5.7,1.7-10.6,5.2-15c1.9-2.4,3.7-4.9,5.8-7.2c2.7-2.9,5.9-4.8,10.1-4.3c2.6,0.3,4.1,1.7,4.3,4.3
		C167.4,240.2,167.4,241.1,167.4,241.6"/>
	<path class="st15" d="M361.9,345c1.1-1.6,2.1-3.3,3.2-4.8c1.4-1.8,2.8-3.5,4.3-5.2c2.6,1.5,5.1,3.4,7.8,4.6
		c5.9,2.6,11.8,5,17.8,7.2c5.6,2,11.3,4.1,17.1,5.4c8.5,1.9,17,4,25.9,3.8c0.4,0,0.9,0.3,1.3,0.4c-1.4,0.5-2.9,1.4-4.3,1.4
		c-9,0-17.9,0-26.9-0.5c-5.1-0.3-10.1-1.5-15.1-2.6c-5-1.1-10-2.3-14.8-3.8C372.7,349.2,367.3,347,361.9,345"/>
	<path class="st12" d="M267.4,522.3c-5.4,0.2-10.8,0.5-16.1,0.6c-1.8,0-2.9,0.5-4.1,2.1c-3.9,5.6-8.1,11-12.2,16.6
		c-2.4,3.3-4.7,6.8-7,10.2c-1.1,1.7-2.1,3.4-3.2,5.1c-0.6,0-1.3,0-2.3,0c1.4-2.6,2.6-4.9,3.9-7.1c1.5-2.5,3.1-4.8,4.6-7.2
		c2.8-4.5,5.5-9,8.3-13.6c1.3-2.2,2.6-4.4,3.9-6.6c3.5-5.9,7-11.8,10.5-17.6c1.9-3.2,3.9-6.3,6.1-9.7c3.7,6.9,5.9,14,6,21.7
		C266,518.6,266.9,520.5,267.4,522.3"/>
	<path class="st14" d="M134,154c5.5,0,8.5,5,6.1,9.8c-0.3,0.7-0.3,1.6-0.6,2.4c-2.2,6.2-5.6,11.2-12,13.9c-4.3,1.9-7.6,1.5-9.4-2.3
		c-1.2-2.5-1.2-5.5,0.2-8.2c0.2-0.4,0.4-0.8,0.5-1.3c1.4-4.4,4-8,7.5-11.1C128.7,155,131.1,153.8,134,154"/>
	<path class="st14" d="M48.4,285.6c0.1,5.2-1.6,9.7-4.7,13.8c-1,1.4-2,2.9-3.2,4.1c-1.4,1.5-3.1,2.7-4.7,4c-1.1,0.9-4.6,0.4-5.8-0.6
		c-1.3-1.1-2.8-2.2-2.6-4.1c0.3-3.2,0.3-6.5,1.2-9.5c0.7-2.6,2.1-5.1,3.9-7.2c2.3-2.7,5-5.2,7.9-7.1c3.5-2.3,7.4,0.8,8,4.8
		C48.4,284.5,48.4,285.1,48.4,285.6"/>
	<path class="st14" d="M103.9,232.4c-0.6,4.5-3,9.5-7,13.5c-1.4,1.4-3.3,2.3-5.1,3c-2.1,0.7-4-0.4-5.6-1.9c-2.7-2.6-3.4-5.9-2.5-9.4
		c1.1-4.1,2.8-8.2,5.8-11.3c1.7-1.7,4.1-3.1,6.5-3.7C100.7,221.3,103.9,225.8,103.9,232.4"/>
	<path class="st14" d="M187,168.5c-6.2,0.1-9.1-6.7-8.5-11.2c0.6-4.5,2.7-8.2,6.1-11.1c2.5-2.1,5.6-2.4,8.7-1.6
		c3.4,1,4.4,3.8,5.1,6.8c1.2,5.7-1.1,10.4-4.8,14.3C192.1,167.3,189.2,167.6,187,168.5"/>
	<path class="st14" d="M70,183.1c-1.4,5.5-2.6,11.1-7.7,14.8c-2.6,1.9-4.8,3.9-8.2,2.5c-0.7-0.3-1.4-0.7-1.8-1.3
		c-2.3-3-2.3-6.2-1.2-9.8c1.5-5,4.3-8.9,8.4-11.9c2.1-1.6,4.9-2.3,7.3-0.7C68.8,178.1,70.3,180.3,70,183.1"/>
	<path class="st12" d="M201,501c-2.4-2.6-4.7-5.2-7.1-7.8c-0.5-0.6-1.1-1.2-1.6-1.8c1.6-2.7,3.1-5.5,4.8-8.2c0.8-1.3,2-2.5,3.3-3.3
		c4.9-3.3,10-6.3,16-7.3c0.3-0.1,0.7,0,0.9,0c-1.9,3.6-3.6,7.2-5.6,10.7c-2.7,4.8-5.6,9.6-8.4,14.4C202.7,498.8,201.8,499.9,201,501
		"/>
	<path class="st14" d="M29.9,224.9c0.1-6.1,3.1-11,7.5-14.9c1.5-1.3,3.9-2.7,6.3-0.6c1.7,1.5,2.7,4.4,2.1,7.3
		c-1.1,5.9-4.5,10.2-9.3,13.6c-2.3,1.7-6.2-0.3-6.6-3.3C29.8,226.4,29.9,225.6,29.9,224.9"/>
	<path class="st14" d="M119.5,125.8c-0.9,4.6-2.9,8.4-6.8,11.3c-2.8,2-5.4,3-8.7,1.9c-1.8-0.6-3.4-3-3-4.7c0.4-1.5,0.9-3,1.7-4.3
		c2.3-3.6,5.2-6.6,9-8.6C115.6,119.4,120.2,121.7,119.5,125.8"/>
	<path class="st14" d="M89.4,151.4c-0.5,3.1-2.2,6.5-5.3,9.2c-1.1,1-2.1,2.4-3.4,2.9c-4.8,1.6-6.7-0.7-6.7-4.8
		c0.1-3.8,2.1-7.3,4.9-10c1.1-1,2.1-2.3,3.4-2.9C86.6,143.8,89.3,145.6,89.4,151.4"/>
	<path class="st14" d="M166.4,216.3c0,3.8-2.4,6.4-4.6,9.2c-1.3,1.7-2.3,3.8-4.8,4.1c-1.4,0.2-3,0.9-4.1,0.4c-1.9-0.8-2.8-2.8-2.4-5
		c0.8-4.1,3.2-7.1,6.4-9.7c1.7-1.3,3.2-2.7,5.4-2.8C166,212.3,166.4,212.7,166.4,216.3"/>
	<path class="st14" d="M144.9,108.7c0.3,3.8-2,6.4-5,8.5c-1.5,1-3,2.2-4.6,2.7c-4.4,1.4-7.5-1.6-6.2-6.1c0.8-2.8,2.3-5.5,5.2-6.9
		c1.8-0.9,3.6-2,5.5-2.6C143.3,103.3,144.9,104.6,144.9,108.7"/>
	<path class="st14" d="M85.5,208.2c-1.6,3.8-2.9,7.2-4.5,10.4c-0.9,1.7-1.5,3.8-3.8,4.4c-2.2,0.7-4.5-0.3-5.5-2.4
		c-2.1-4.7,0.7-10.1,4.1-13.4c0.7-0.7,1.3-1.6,2.1-1.9c1.4-0.6,3.3-1.4,4.5-0.9C83.7,205,84.4,206.8,85.5,208.2"/>
	<path class="st14" d="M138.4,212.9c0.2-2.4,1-4.5,2.6-6.5c1.8-2.3,3.7-4.3,6.4-5.4c2.3-0.9,5.2,0.6,5.4,3c0.4,3.7-1.3,7-3.3,9.8
		c-1.3,1.8-3.4,3.1-5.3,4.4c-2.1,1.4-5.6-1.1-5.9-3.3C138.3,214.2,138.4,213.6,138.4,212.9"/>
	<path class="st14" d="M169.9,98.8c0.2,2.7-0.5,4.8-2.8,6.3c-2.2,1.4-4.2,3-6.3,4.6c-1.6,1.2-5.7-1.1-6-2.8
		c-0.6-4.2,1.7-7.2,4.3-9.9c1.4-1.5,3.3-2.5,5.1-3.6c2.5-1.4,5.2,0.2,5.7,3.4C170,97.5,169.9,98.3,169.9,98.8"/>
	<path class="st14" d="M183.8,98.5c-2.6,0.4-4.1-0.9-5.3-2.8c-0.8-1.3,0.5-5,1.9-6.2c1.8-1.5,3.6-3.1,5.5-4.5
		c2.9-2.3,8.4-1.4,9.2,1.6c0.4,1.5,0.4,3.5-0.4,4.7C192.1,95.1,188.5,97.9,183.8,98.5"/>
	<path class="st14" d="M222.3,79.4c0.6,3.2-1.9,4.9-3.5,6.8c-1.4,1.6-3.5,2.6-5.5,3.6c-2.5,1.2-5.3,0.7-6.3-0.8
		c-1-1.6-0.4-6,1.1-7.3c2.4-2.2,4.8-4.5,7.5-6.3c1.1-0.7,3.4-0.7,4.6-0.1c1.2,0.7,1.8,2.5,2.7,3.8C222.7,79.1,222.5,79.2,222.3,79.4
		"/>
	<path class="st14" d="M120.8,142c2.3-0.3,3.4,1.2,3.5,3.3c0.4,6.1-3.7,11.2-8.9,13.1c-2.2,0.8-4.9-2.2-5.1-5.3
		c-0.2-4.1,5.7-10.7,9.3-11.1C120,142,120.3,142,120.8,142"/>
	<path class="st14" d="M19.8,242.4c1.2-2.9,2.1-6.1,3.7-8.9c1.6-2.8,5.7-2.1,7.6,0.4c2.7,3.8,0,6.9-0.9,10.2
		c-0.5,1.8-2.1,3.3-3.5,4.7c-1.1,1.2-3.7,0.7-4.6-0.8C21.2,246.4,20.7,244.6,19.8,242.4"/>
	<path class="st14" d="M39.4,252.4c-0.7,4.8-2.7,8.9-6.7,11.8c-1.3,0.9-4.1-0.1-4.8-1.9c-1.7-4.2-1-10.6,4.1-13.3
		c0.2-0.1,0.6,0,0.7-0.2c1-1.4,2.4-1.9,3.8-1C38,248.9,39.7,250,39.4,252.4"/>
	<path class="st14" d="M89.9,174.8c-0.1,3-1.7,6.5-5.9,8.3c-1.4,0.6-2.6,2.2-4.6,0.9c-3-1.9-3.2-4.5-2.3-7.2
		c1.2-3.5,3.5-6.2,7.2-7.3C88.1,168.2,89.9,169.5,89.9,174.8"/>
	<path class="st14" d="M73.4,201.9c-1.4,2.5-2.7,5.3-4.4,7.7c-0.9,1.3-2.6,2.2-4.1,2.9c-2.2,1.1-4-0.1-5.2-1.7
		c-1.1-1.5-0.9-3.2,0.3-4.9c1.5-1.9,2.5-4.2,3.9-6.2c2.1-2.9,5.7-3.2,8.2-0.8C72.7,199.5,72.8,200.5,73.4,201.9"/>
	<path class="st14" d="M102.4,157c0.7,4.4-3.9,8.5-7.2,9.8c-2.1,0.8-4.1-0.2-5-2.8c-0.7-2.1-0.8-4.2,0.9-6.1
		c1.3-1.5,2.4-3.1,3.7-4.6c0.5-0.6,1.4-1.1,2.2-1.2C101.5,151.1,102.6,153.6,102.4,157"/>
	<path class="st14" d="M33.9,274.8c-0.1,5.7-4.4,9.6-8,11.6c-1.3,0.7-4.4-2.3-4.5-4.1c-0.2-4.6,1.3-8.2,5.5-10.7
		c1.6-0.9,3-2.7,4.8-0.6C32.6,272.1,33.2,273.6,33.9,274.8"/>
	<path class="st14" d="M172.5,140c-3.2-0.4-4.2-1.9-3.7-5.1c0.6-3.7,2.6-6.5,6-8c1.2-0.5,3.3-0.2,4.5,0.5c2,1.2,2.4,3.5,1.4,5.5
		c-1.6,3-3.2,6.4-7.3,6.9C173,139.8,172.7,139.9,172.5,140"/>
	<path class="st14" d="M130.2,125.3c2.3-0.1,3.1,1.1,3.1,3c0,2.8-0.8,5.2-3.1,7c-1.2,0.9-2.2,2-3.5,2.9c-1.4,0.9-2.9,0.7-4-0.3
		c-1.4-1.3-2-3.2-1.3-4.8c1.3-2.9,3.3-5.5,6.2-7C128.5,125.7,129.4,125.5,130.2,125.3"/>
	<path class="st14" d="M131.4,189.5c0.2-2.3,1.1-5.4,4.4-7.2c3.7-1.9,6-0.5,6.2,3.6c0.2,4.4-2.9,7.8-6.8,9
		C132.9,195.5,131.4,193.8,131.4,189.5"/>
	<path class="st14" d="M86.9,215.3c0.5-2.6,1.5-6,5-7.9c0.9-0.5,2.8-0.2,3.5,0.5c3.3,3.3,0.7,11.1-3.9,12.1
		C88.4,220.6,86.9,219.5,86.9,215.3"/>
	<path class="st14" d="M142.4,173.4c0-3.1,2-6.3,4.9-6.9c1.3-0.3,3.1-0.2,4.2,0.5c1.4,0.9,1.5,2.1,0.7,4.1c-1.1,2.6-2,4.8-4.9,6
		c-2.6,1.1-4.7,0.3-4.9-2.5C142.3,174.2,142.4,173.8,142.4,173.4"/>
	<path class="st14" d="M19.4,269.7c-0.6,3.4-1.3,6.4-4,8.4c-0.9,0.6-2.5,1-3.3,0.6c-1-0.5-2.3-1.3-2.3-3.1c0-3.4,2-6,3.7-8.6
		c0.6-0.8,2.9-1.3,3.9-0.8C18.4,266.6,18.8,268.5,19.4,269.7"/>
	<path class="st14" d="M161.3,191c0.2,3.8-2.3,6.5-5.1,7.7c-1.7,0.8-3.5,0.1-4.4-1.2c-0.6-0.8-0.3-2.5,0.1-3.6
		c0.6-1.6,1.3-3.4,2.5-4.5c1.2-1,3.2-1.7,4.8-1.7C161,187.9,161.8,189.5,161.3,191"/>
	<path class="st14" d="M58.2,208.6c-1.8,2.8-3.2,5.4-5,7.7c-0.6,0.7-2.6,1-3.4,0.5c-0.8-0.5-1.4-2.1-1.3-3.2
		c0.2-3.2,1.5-6.1,3.7-8.5c0.5-0.6,2.2-0.9,2.7-0.5C56,205.5,56.9,206.9,58.2,208.6"/>
	<path class="st14" d="M106.6,172.4c-0.7-0.7-1.7-1.2-2.1-2c-1.2-2,0.1-5.8,2.1-7c1.1-0.7,2.1-1.7,3.3-2.2c1.9-0.8,3.5,0.2,3.9,2.2
		c0.6,2.8-1.7,6.5-4.5,7.5C108.5,171.3,107.8,171.8,106.6,172.4"/>
	<path class="st14" d="M165.6,113c3.7,0,5,2.6,2.7,6.3c-0.9,1.5-2.6,2.9-4.2,3.6c-2.8,1.3-4.1,0.4-4.7-2.5
		C158.8,117.7,162.4,112.7,165.6,113"/>
	<path class="st14" d="M190.1,114.9c-1.2,1.8-1.9,3.9-3.3,5c-1.7,1.3-4.1,2.1-5.9-0.2c-0.6-0.7-1.1-2.1-0.8-2.8
		c0.6-1.6,1.7-3,2.8-4.4c1.3-1.7,3.3-2,5.1-1.3C188.9,111.6,189.3,113.3,190.1,114.9"/>
	<path class="st14" d="M136.3,204.8c0,2.2-2.3,4.5-4.2,6.9c-0.4,0.5-2.1,0-3.2-0.1c0.1-1.3-2.8-1.7-1-3.8c1.2-1.4,1.5-3.5,2.4-5.2
		c0.4-0.8,1.3-1.5,2.1-1.9C134.5,199.5,136.4,200.9,136.3,204.8"/>
	<path class="st14" d="M142.9,235.3c0,3.3-2.8,7.8-4.8,8.6c-1.9,0.8-4-1-3.6-3.2c0.5-3.1,1.8-5.9,4.5-7.6c0.5-0.3,1.7-0.4,2.2,0
		C142,233.8,142.6,234.9,142.9,235.3"/>
	<path class="st14" d="M73.9,167.6c0,3.8-2.6,6.7-5.8,6.4c-2.6-0.2-3.6-2.4-2.1-4.6c1.1-1.6,2.1-3.4,3.6-4.5
		C72.4,163.1,73.9,164.2,73.9,167.6"/>
	<path class="st14" d="M73.9,239.2c-0.1-2.6,0.9-4.7,3.1-6c0.8-0.5,2.5-0.6,3-0.1c0.9,1,2,2.9,1.7,3.8c-0.7,1.9-2.2,3.7-3.8,4.9
		C75.8,243.5,73.9,242.1,73.9,239.2"/>
	<path class="st14" d="M23.9,254.5c-1,1.5-1.8,3.4-3.1,4.5c-0.7,0.6-2.9,0.6-3.5,0c-1.2-1.2-2.2-3-1.2-4.9c0.3-0.5,0.6-0.9,0.8-1.4
		c0.7-1.6,1.3-3.4,3.7-2.7c2,0.6,3.2,1.9,2.6,4.2C23.5,254.3,23.7,254.4,23.9,254.5"/>
	<path class="st14" d="M82.9,191.9c0,3.4-1.2,5.1-3.9,5.9c-1.8,0.5-3-0.3-3.1-2.3c-0.1-2.5,0.2-4.8,2.8-6.2
		C81.9,187.7,82.9,188.2,82.9,191.9"/>
	<path class="st14" d="M46.9,198.5c0,3.2-2,5.5-4.6,5.5c-2.4,0-2.5-1.6-2.4-3.4c0-3.3,2-5.7,4.6-5.7C46.3,195,46.9,195.9,46.9,198.5
		"/>
	<path class="st14" d="M35.9,271.6c0-3.8,1.3-5.4,4.1-5.4c1.9,0,2.9,1.2,2.9,3.6c0,2.9-1.9,5.3-4.3,5.1
		C36.1,274.8,36,272.9,35.9,271.6"/>
	<path class="st14" d="M147,124c-2.5,0-3.7-1.4-3-3.1c0.7-1.7,0.9-3.9,3.4-4.3c1-0.1,1.5-2.3,3.1-0.6c1.6,1.7,1.3,5.3-1,6.8
		C148.6,123.5,147.5,123.8,147,124"/>
	<path class="st14" d="M205.9,97c0,2.4-3.5,5.6-5.7,5.5c-2-0.2-3.4-2.6-2-4.4c1.3-1.6,3.3-2.7,5.3-3.4
		C204.5,94.3,206.4,95.1,205.9,97"/>
	<path class="st14" d="M147.9,188.5c-0.3-0.2-1.7-0.4-1.9-1.1c-0.3-0.9,0.3-2.1,0.6-3.1c0.7-2,1.8-3.7,4.2-3.3
		c0.9,0.2,2.1,1.2,2.4,2.1C153.8,184.9,150.5,188.5,147.9,188.5"/>
	<path class="st14" d="M41.9,238.4c0,1.7-2.7,5-4,5.1c-2.1,0.1-2.3-1.9-2.8-3c-0.7-1.5,2.6-5.5,4-5.5C41,235,41.9,236.1,41.9,238.4"
		/>
	<path class="st14" d="M193.9,134.8c-0.6,0.8-1.4,2.5-2.8,3.5c-0.9,0.7-2.6,0.8-3.5-1.1c-1-2.3,0.8-6.3,3.3-6.7
		C192.7,130.2,193.9,131.6,193.9,134.8"/>
	<path class="st14" d="M101.2,147.6c0.4-4.8,2-5.4,4.5-5.2c1.8,0.2,2.1,1.4,2.2,2.7c0.1,1.8-2.8,4.6-4.5,4.2
		C102.4,149.2,101.6,148,101.2,147.6"/>
	<path class="st14" d="M64.4,225c-0.4-2,0.8-3.4,2.7-3.4c1.4,0,3.1,0.8,3.2,2.7c0.1,1.7-2.2,4.2-3.7,4.2
		C64.2,228.5,64.3,226.8,64.4,225"/>
	<path class="st14" d="M93.6,145c-2,0.1-1.8-1.3-1.7-2.6c0.1-1.7,0.6-3.6,2.7-3.3c1,0.2,2.4,1.7,2.6,2.8
		C97.5,143.4,95.2,145.1,93.6,145"/>
	<path class="st14" d="M36.5,309.4c1.2,1.4,2.6,2.3,2.7,3.2c0.1,1.6-0.8,3.3-2.9,3.4c-1.9,0.1-2.6-1.4-2.3-2.7
		C34.3,312,35.4,310.9,36.5,309.4"/>
	<path class="st14" d="M26.4,264.2c-2.4,2.8-4.2,3.6-5.3,2.3c-1.1-1.3-0.5-2.6,0.6-3.6C23.2,261.4,24,261.6,26.4,264.2"/>
	<path class="st8" d="M377.9,253.9c1.3,0.1,2.5,0.3,2.6,2C379.6,255.3,377.6,256.1,377.9,253.9"/>
	<path class="st7" d="M175.4,543.5c-1-0.7-2-1.3-3-2C173.4,542.1,174.4,542.8,175.4,543.5"/>
	<path class="st7" d="M172.4,541.5c-0.8-0.3-1.7-0.6-2.5-0.9c0.2-0.2,0.3-0.3,0.5-0.5C171,540.5,171.7,541,172.4,541.5"/>
	<path class="st8" d="M387.9,450c0-1,0-2,0.1-3C388,448,387.9,449,387.9,450"/>
	<path class="st8" d="M380.8,256.1c0.4,0.1,0.7,0.3,1.1,0.4C381.6,256.3,381.2,256.2,380.8,256.1"/>
	<path class="st1" d="M170.3,540c-0.2,0.2-0.3,0.3-0.5,0.5c-0.2-0.2-0.3-0.4-0.5-0.6C169.7,540,170,540,170.3,540"/>
	<path class="st7" d="M176.4,544c-0.4-0.2-0.7-0.3-1.1-0.5C175.7,543.6,176.1,543.8,176.4,544"/>
	<path class="st8" d="M435.9,77c0-0.1,0.1-0.1,0.1-0.2C435.9,76.8,435.9,76.9,435.9,77L435.9,77z"/>
	<path class="st16" d="M427.1,247.4c-5.9-0.6-10.4-0.5-14.6-1.6c-7-1.7-14.1-3.3-20.3-7.2c-3.9-2.5-8-4.8-11.7-7.6
		c-2.8-2.2-5.1-5-7.4-7.7c-2.7-3.3-5.6-6.7-7.6-10.5c-2.2-4.2-3.6-8.8-5.2-13.3c-4.3-12.3-3.8-24.8-1-37.3
		c1.9-8.5,5.8-16.2,10.9-23.3c2.6-3.5,5.1-7,8.5-9.9c2.5-2.1,4.6-4.6,7.1-6.7c2.1-1.8,4.4-3.4,6.8-4.7c6-3.5,12.6-5.8,19.3-7.8
		c9.3-2.9,18.7-3,28.1-2c5.5,0.6,11.1,2,16.4,3.7c6.6,2.2,12.8,5.4,18,9.9c6.1,5.2,11.5,11.2,16,18c3.8,5.8,6.2,12.2,7.9,19
		c2.4,9.3,2.8,18.6,0.9,27.8c-1.4,6.8-3.9,13.4-6.4,19.9c-1.2,3.2-3.2,6.3-5.4,9c-4.1,4.9-8.2,9.8-13.1,13.9
		c-4.9,4.1-10.4,7.7-16.1,10.6c-4.5,2.4-9.7,3.8-14.7,5C437.7,246.1,431.7,246.7,427.1,247.4 M425.7,238.8c7.7-0.1,15-1.4,22.2-3.9
		c1-0.3,2.1-0.5,3.1-1c4.7-2.5,9.7-4.4,13.8-7.9c3.2-2.7,6.7-5,9.5-8.1c3.2-3.5,5.7-7.6,8.5-11.4c3.6-5,5.9-10.7,7.2-16.5
		c3.2-14.6,2.8-29-4.6-42.5c-2.2-4-5-7.7-7.9-11.2c-2.3-2.8-5.3-5-7.9-7.4c-3.7-3.5-8-6.1-12.7-8.2c-6.3-2.9-13-4.2-19.7-5
		c-10.2-1.3-20.2,0.6-29.7,4.5c-3.2,1.3-6.6,2.5-9.5,4.4c-3.6,2.3-6.7,5.3-10.1,7.8c-4.6,3.4-8.1,7.8-11.3,12.4
		c-3.5,5-6.2,10.5-8,16.2c-1.5,4.8-2.4,10-2.8,15c-0.3,4,0.4,8,0.7,12c0.4,5.8,2.2,11.1,4.6,16.4c1.1,2.6,2,5.4,3.7,7.6
		c3.2,4.1,6.9,7.8,10.5,11.6c4.1,4.4,9,7.6,14.7,9.5c4.1,1.4,8.1,3.4,12.3,4.3C416.5,238.2,421.2,238.3,425.7,238.8"/>
	<path class="st17" d="M427.1,261.4c-3.9-0.6-8.3-1.3-12.6-2c-0.6-0.1-1.1-0.4-1.6-0.7c-2-0.8-2.7-2.5-1.9-4.2
		c0.5-0.9,2.6-1.5,3.7-1.2c5.3,1.2,10.6,2.8,16.1,2c6.8-1,13.5-2.5,20.3-3.9c1.4-0.3,2.8-0.5,4.1-1.1c4-1.7,8-3.6,12-5.4
		c0.5-0.2,1.1-0.6,1.6-0.6c1.4,0,3.2-0.2,4.2,0.5c1,0.7-0.4,4-2,4.8c-3.2,1.6-6.5,3-9.8,4.5c-9.4,4.2-19.3,6.1-29.5,6.4
		c-0.7,0-1.4,0.5-2.1,0.6C429,261.4,428.3,261.3,427.1,261.4"/>
	<path class="st2" d="M451.7,86.8c0.3-0.1,0.6-0.1,0.9-0.2c0,0.1,0.1,0.2,0.1,0.3c-0.2,0.1-0.5,0.1-0.7,0.2
		C451.8,86.9,451.7,86.8,451.7,86.8"/>
	<path class="st17" d="M492,296c1.4-1.6,2.8-3.1,4.2-4.7c1.4-1.6,3.1-1.7,5-0.9c1,2.4-0.3,4.3-1.8,5.8c-2.4,2.4-2.8,3.5-1.6,6.6
		c0.5,1.4,0.6,2.8-1,3.7c-1.8,1-4.6,0.2-5.8-1.5C488.8,301.7,490.4,298.9,492,296"/>
	<path class="st18" d="M425.7,238.8c-4.5-0.5-9.2-0.5-13.6-1.5c-4.2-1-8.2-3-12.3-4.3c-5.7-1.9-10.6-5.1-14.7-9.5
		c-3.6-3.8-7.3-7.5-10.5-11.6c-1.7-2.2-2.6-5-3.7-7.6c-2.3-5.2-4.2-10.6-4.6-16.4c-0.3-4-1-8.1-0.7-12c0.4-5.1,1.3-10.2,2.8-15
		c1.8-5.7,4.5-11.2,8-16.2c3.3-4.6,6.8-9,11.3-12.4c3.4-2.5,6.5-5.5,10.1-7.8c2.9-1.9,6.3-3.1,9.5-4.4c9.5-3.9,19.5-5.7,29.7-4.5
		c6.7,0.8,13.4,2.1,19.7,5c4.7,2.1,9,4.7,12.7,8.2c2.6,2.5,5.6,4.7,7.9,7.4c2.9,3.5,5.7,7.2,7.9,11.2c7.5,13.5,7.8,27.9,4.6,42.5
		c-1.3,5.9-3.6,11.5-7.2,16.5c-2.8,3.9-5.3,7.9-8.5,11.4c-2.8,3.1-6.3,5.4-9.5,8.1c-4.1,3.5-9.1,5.5-13.8,7.9c-0.9,0.5-2,0.7-3.1,1
		C440.8,237.4,433.4,238.7,425.7,238.8 M418.4,232.6c8.2,0.1,14.7-1.8,20.6-6.2c3.8-2.9,6.7-6.2,9.1-10.1c2.9-4.7,4.2-9.9,4.7-15.2
		c0.2-2.7-0.5-5.5-0.9-8.2c-1-7.1-4.5-12.8-9.6-17.9c-3.2-3.2-6.9-5.6-10.8-7c-5.4-1.8-11.1-3.5-17.1-1.9c-2.4,0.6-5,0.8-7.1,1.9
		c-4.6,2.4-9.3,4.7-13,8.6c-4.5,4.8-7.7,10-8.5,16.6c-1.1,8.6,1.2,16.3,5.5,23.7c2.7,4.7,6.4,8.4,10.8,11.2
		C407.2,231.3,413.1,233,418.4,232.6"/>
	<path class="st19" d="M418.4,232.6c-5.3,0.4-11.2-1.3-16.4-4.7c-4.4-2.8-8-6.5-10.8-11.2c-4.3-7.4-6.5-15.1-5.5-23.7
		c0.8-6.6,4-11.8,8.5-16.6c3.7-3.9,8.4-6.1,13-8.6c2.1-1.1,4.8-1.2,7.1-1.9c5.9-1.6,11.7,0.1,17.1,1.9c4,1.3,7.6,3.8,10.8,7
		c5.1,5.1,8.6,10.7,9.6,17.9c0.4,2.7,1.1,5.5,0.9,8.2c-0.5,5.4-1.7,10.6-4.7,15.2c-2.5,3.9-5.4,7.3-9.1,10.1
		C433.2,230.8,426.7,232.7,418.4,232.6 M428.3,193.9c-8.1-0.5-15.3,6.7-15.4,15c-0.1,8.5,6.1,14.5,14.1,14.6
		c8.8,0,15.1-7.1,15.5-15.4C442.8,200.7,436.3,193.3,428.3,193.9 M428.6,187.6c0-2.5-2.1-4.6-4.5-4.5c-2.5,0.1-4.4,2.3-4.4,4.9
		c0,2.8,1.7,4.5,4.5,4.4C426.8,192.4,428.7,190.3,428.6,187.6"/>
	<path class="st18" d="M428.3,193.9c8-0.6,14.5,6.8,14.2,14.2c-0.3,8.3-6.7,15.4-15.5,15.4c-8,0-14.2-6.1-14.1-14.6
		C413,200.6,420.2,193.4,428.3,193.9"/>
	<path class="st20" d="M428.6,187.6c0,2.7-1.9,4.8-4.4,4.8c-2.7,0-4.4-1.6-4.5-4.4c0-2.6,1.9-4.8,4.4-4.9
		C426.5,183,428.6,185.1,428.6,187.6"/>
</g>
</svg>
