<?xml version="1.0" encoding="utf-8"?>
<!-- Generator: Adobe Illustrator 19.0.0, SVG Export Plug-In . SVG Version: 6.00 Build 0)  -->
<svg version="1.1" id="Livello_1" xmlns="http://www.w3.org/2000/svg" xmlns:xlink="http://www.w3.org/1999/xlink" x="0px" y="0px"
	 viewBox="0 0 469.3 457.8" style="enable-background:new 0 0 469.3 457.8;" xml:space="preserve">
<style type="text/css">
	.st0{fill:#FFFFFF;}
</style>
<g>
	<path class="st0" d="M225.9,227.5c0,0-186.4-102.9-222.2,6.8c-21.7,66.5,65.9,98.9,122.2,94.4c0,0-103.9-33.8-86.8-88.2
		C60.4,173.2,219.4,226.1,225.9,227.5"/>
	<path class="st0" d="M243.7,227.5c0,0,186.4-102.9,222.2,6.8c21.7,66.5-65.9,98.9-122.2,94.4c0,0,103.9-33.8,86.8-88.2
		C409.2,173.2,250.1,226.1,243.7,227.5"/>
	<path class="st0" d="M137.6,224.8c0,0,9.6-16.1,42.5,0c33,16.1,2.9,24.5,1.7,24.8c-4.5,1.2-17.5-16-23.8-20.3
		C151.4,224.8,148.3,222.8,137.6,224.8"/>
	<path class="st0" d="M332.7,224.8c0,0-9.6-16.1-42.5,0c-33,16.1-2.9,24.5-1.7,24.8c4.5,1.2,17.5-16,23.8-20.3
		C318.9,224.8,322,222.8,332.7,224.8"/>
	<path class="st0" d="M211.9,235.1c0,0-155,137.6-87.3,205.6c35,35.2,76,4.8,76,4.8s-60.8,1.7-57.5-51.8
		C146.9,336,213.4,238.8,211.9,235.1"/>
	<path class="st0" d="M257.6,235.1c0,0,155,137.6,87.3,205.6c-35,35.2-76,4.8-76,4.8s60.8,1.7,57.5-51.8
		C322.7,336,256.2,238.8,257.6,235.1"/>
	<path class="st0" d="M220.1,427.8c0,0-24.5-36.3-16.5-86.6c1.5-9.7,6.3-23.5,5.1-32.7c0,0-4.8-2.7-8-1.6
		c-3.9,1.3-6.5,13.7-7.5,16.6c-1.1,3.4-12.4,49.5-1.4,70.3C202.8,414.6,214.6,422.7,220.1,427.8"/>
	<path class="st0" d="M249.9,427.8c0,0,24.5-36.3,16.5-86.6c-1.5-9.7-6.3-23.5-5.1-32.7c0,0,4.8-2.7,8-1.6
		c3.9,1.3,6.5,13.7,7.5,16.6c1.1,3.4,12.4,49.5,1.4,70.3C267.2,414.6,255.4,422.7,249.9,427.8"/>
	<path class="st0" d="M235,224.6c0,0,33-191.1,111.7-179.4c35.8,5.3,78.2,72.1,41,129.9c0,0,30.3-13.4,43.9-57.5
		c30.4-98-153.8-204.1-196.7-3.8h-0.2C191.9-86.4,7.7,19.7,38.1,117.7c13.7,44,43.9,57.5,43.9,57.5c-37.2-57.9,5.3-124.6,41-129.9
		c78.7-11.7,111.7,179.4,111.7,179.4H235z"/>
	<path class="st0" d="M120.6,80.5c0,0,61.4,15.5,88.4,90.4c5.7,15.8,0.2,22.4-5.2,8.5C178.9,115.4,136.1,85,120.6,80.5"/>
	<path class="st0" d="M349.7,80.5c0,0-61.4,15.5-88.4,90.4c-5.7,15.8-0.2,22.4,5.2,8.5C291.4,115.4,334.2,85,349.7,80.5"/>
	<path class="st0" d="M257.8,252.9c0,0-9.3-2.5-7.3,5.4c2,7.9,15.2,29,15.2,29s2.3-23.9,0-29.9C263.4,251.5,260.3,250.9,257.8,252.9
		"/>
	<path class="st0" d="M235,312.7c3.8,0,13.2-62,12.6-74.6c-0.8-14.7-12.5-1.7-12.5-1.7H235c0,0-11.8-13-12.5,1.7
		C221.8,250.6,231.2,312.7,235,312.7"/>
	<path class="st0" d="M211.8,252.9c0,0,9.3-2.5,7.3,5.4c-2,7.9-15.2,29-15.2,29s-2.3-23.9,0-29.9
		C206.1,251.5,209.2,250.9,211.8,252.9"/>
</g>
</svg>
