<?xml version="1.0" encoding="utf-8"?>
<!-- Generator: Adobe Illustrator 19.0.0, SVG Export Plug-In . SVG Version: 6.00 Build 0)  -->
<svg version="1.1" id="Livello_1" xmlns="http://www.w3.org/2000/svg" xmlns:xlink="http://www.w3.org/1999/xlink" x="0px" y="0px"
	 viewBox="-252 39.8 453.3 483.2" style="enable-background:new -252 39.8 453.3 483.2;" xml:space="preserve">
<style type="text/css">
	.st0{fill:#FFFFFF;}
</style>
<g>
	<g id="XMLID_2_">
		<path id="XMLID_708_" class="st0" d="M-251.2,258.4c2-1.5,2-3.6,3.1-5.6c7.2-18.4,14.9-23.6,35.9-22c1.5,0,3.6,0,5.6,0
			c-1.5-5.6-6.7-6.7-9.2-9.2c-3.6-3.1-7.7-4.1-10.8-8.7c19.5-12.8,32.8-10.2,45.1,12.3c3.1-9.2,6.7-17.4,16.4-18.4
			c10.2-2,18.4,1.5,27.7,6.7c-5.6,7.7-15.9,10.2-21.5,17.4c3.6,2,6.7,0.5,8.7,0.5c19.5-1.5,32.3,8.7,35.9,27.7
			c0.5,5.6-0.5,7.2-5.6,5.1c-12.3-3.6-24.6-7.2-37.4-10.8c16.4,14.9,18.4,31.2,9.2,52.2c-9.2-12.8-17.9-24.6-26.6-36.4
			c-3.6,2-2,5.1-2,7.7c0,18.4,0.5,37.4,0.5,56.3c0,7.7,2,9.2,8.7,5.1c22-14.3,43.5-28.7,66.1-42c5.1-3.1,4.1-7.2,4.1-10.8
			c0.5-51.7,1.5-102.4,2-153.7c0-9.2,2-17.9-0.5-28.7c-10.8,11.3-17.4,25.1-27.7,35.9c-9.2-17.4-7.2-33.8,5.1-50.2
			c-10.2,3.1-21,6.7-30.7,9.2c-3.1,0.5-5.6,3.1-7.7,0.5c-3.1-2,0-5.1,0.5-7.7c5.6-20,15.9-26.6,36.4-25.1c2,0,4.1,1.5,7.2-1.5
			c-5.6-4.1-11.3-8.7-17.9-12.8c-5.6-3.6-4.1-5.1,1.5-7.2c20-7.7,30.2-4.1,39.4,14.9c11.3-21,23.6-23.6,45.1-10.8
			c-7.7,5.6-14.9,10.8-22,16.4c26.6-3.1,41.5,7.7,45.1,35.9c-14.3-1.5-26.6-9.2-43.5-10.8c16.4,15.9,17.9,32.3,9.2,51.7
			c-9.2-12.8-17.9-24.6-26.6-35.9c-4.1,2-3.1,5.6-3.1,8.7c0.5,53.8,1.5,106.5,2,160.3c0,18.4,0,18.4,17.9,24.6
			c52.8,17.9,106,35.9,158.3,53.8c12.8,4.1,13.8,4.1,13.8-9.2c0-43.5,0-88.1,0-132.7c-8.7,11.3-17.4,23-27.1,36.4
			c-7.7-20-8.7-37.4,6.7-52.8c-11.3,3.6-23,6.7-34.3,10.8c-7.7,3.1-7.7-0.5-6.7-6.7c5.1-22,17.4-30.2,39.9-26.6c1.5,0,3.1,0,5.1,0
			c-5.6-6.7-12.8-10.2-18.4-14.3c-5.1-3.6-3.6-5.6,1.5-7.7c17.4-7.2,29.2-3.6,38.4,12.3c5.6-6.7,7.7-15.9,19.5-15.9
			c9.2,0,17.9,0.5,26.6,6.7c-6.7,7.7-16.4,11.3-24.6,18.4c3.6,2,6.7,0,9.2,0c25.1-4.1,34.3,12.3,37.9,30.2c0.5,5.1-0.5,5.6-5.1,4.1
			c-11.3-3.6-23.6-7.2-36.4-10.8c14.3,14.9,16.4,32.3,7.7,52.2c-9.2-12.8-17.9-24.6-27.7-37.9c-3.1,12.8,0,23.6,0,34.3
			c0,36.4,1.5,73.2,2,109.6c0,7.7,3.6,11.3,10.2,13.8c21,7.2,41.5,12.8,62.5,21.5c4.1,1.5,8.7,1.5,6.7,7.7c-2,7.2-6.7,4.1-10.8,3.1
			c-19.5-5.6-38.4-11.3-57.9-17.9c-7.7-3.1-10.2-0.5-10.2,7.2c0.5,31.2,0.5,63,0.5,94.2c0,7.2,3.1,9.2,9.2,8.7
			c17.4-1.5,33.8,0,50.7-2c6.7-0.5,8.7,2,8.7,8.7c-0.5,21-0.5,21-21,21c-90.1,0-180.3,0-270.4,0.5c-3.6,0-7.7-1.5-10.8,2
			c-34.8,0-70.7,0-106,0c-5.6-3.6-4.1-9.2-5.6-14.3c8.7-0.5,17.4-2,25.6-2c7.2,0,9.2-2,9.2-9.2c0-21.5,0.5-43,0.5-64.5
			c0-20,0-41,0-61.5c-5.6,0.5-9.2,3.6-12.8,5.6c-5.6,3.1-10.8,6.7-16.4,9.2c-3.1,1.5-6.7,2-7.7-0.5c-3.1-4.1,2-4.1,4.1-5.6
			c7.7-5.6,16.4-11.3,25.1-15.9c7.7-4.1,9.2-10.2,9.2-17.9c0-19.5,0.5-38.4,1.5-57.9c0-4.1,0.5-7.7-1.5-13.8
			c-7.7,11.3-15.9,21.5-23,31.2c-1.5,1.5-2,4.1-4.1,3.6c-2-0.5-2-3.1-3.1-5.1c-3.1-7.7-3.1-14.9-2-23c1.5-8.7,7.7-14.3,12.8-22
			c-15.9,2-28.7,10.8-43,11.3C-251.2,262.5-251.2,260.5-251.2,258.4z M-82.7,404.4c0.5,0,1.5,0,2,0c0,27.7,0,55.3,0,83
			c0,7.7,1.7,13.6,9.9,13.1c54.3-2,110.1-5.7,164.4-7.2c8.7,0,11.1-5.9,11.1-14.1c0-32.8,0.5-66.6,0.5-99.4c0-6.7-2-9.2-8.7-11.3
			C39.2,351.2-18.2,333.7-75,315.8c-7.2-2-7.7,0-7.7,6.7C-82.7,348.6-82.7,376.8-82.7,404.4z M-98.1,407.5c0-30.2,0-57.4,0-84.5
			c0-7.2-0.5-10.2-8.7-5.6c-21,12.3-41.5,23.6-63,34.3c-5.1,3.1-6.7,6.7-6.7,12.3c0.5,30.7,0.5,61.5,0.5,92.2
			c0,11.3,0.5,23.6,0.5,34.8c0,5.1,1.7,13.7,7.3,13.4c20-0.5,40.5-1.8,60.5-2.8c6.7,0,8-9.1,7.5-15.2
			C-99.1,459.8-98.6,432.1-98.1,407.5z"/>
		<path id="XMLID_707_" class="st0" d="M12.6,409.5c1.5,8.7-3.6,10.2-10.8,10.8c-9.2,0.5-10.2-4.1-10.2-11.3
			c-0.5-9.2,5.1-9.2,12.3-10.2C12.6,397.8,13.1,402.4,12.6,409.5z"/>
		<path id="XMLID_706_" class="st0" d="M-40.7,409.5c-1.5-8.7,1.5-10.8,9.2-10.8s11.3,2,11.3,10.8s-3.6,10.8-11.3,10.8
			S-42.2,417.2-40.7,409.5z"/>
		<path id="XMLID_19_" class="st0" d="M-40.7,440.3c-1.5-7.7,1.5-10.2,9.2-10.2c9.2,0,11.3,3.1,11.3,11.3c0,7.2-2,10.2-10.2,10.2
			C-37.1,451-42.2,449.5-40.7,440.3z"/>
		<path id="XMLID_18_" class="st0" d="M1.8,430c7.7-1.5,11.3,0.5,11.3,9.2c0,8.7-3.1,12.3-11.3,12.3c-7.2,0-10.2-2-10.2-9.2
			C-8.4,434.6-8.4,428,1.8,430z"/>
	</g>
	<polygon id="XMLID_33_" class="st0" points="-80.7,409.5 -88.9,409.5 -88.9,315.3 -80.7,315.3 	"/>
	<polygon id="XMLID_32_" class="st0" points="-121.6,522.2 -121.6,514 167.2,514 167.7,519.7 	"/>
</g>
</svg>
