<?xml version="1.0" encoding="utf-8"?>
<!-- Generator: Adobe Illustrator 19.0.0, SVG Export Plug-In . SVG Version: 6.00 Build 0)  -->
<svg version="1.1" id="Livello_1" xmlns="http://www.w3.org/2000/svg" xmlns:xlink="http://www.w3.org/1999/xlink" x="0px" y="0px"
	 viewBox="0 0 1920.1 685.1" style="enable-background:new 0 0 1920.1 685.1;" xml:space="preserve">
<style type="text/css">
	.st0{fill:#E6CFA1;}
</style>
<g>
	<path class="st0" d="M1746.1,0c21.7,0,43.3,0,65,0c1.5,1.5,3.5,0.9,5.2,1c15.6,1.3,31.1,2.5,46.6,4.6c19.3,2.7,38.3,6.8,57.2,11.4
		c0,221.2,0,442.3,0.1,663.5c0,3.7-0.8,4.6-4.6,4.6c-637-0.1-1274-0.1-1911,0c-3.7,0-4.6-0.8-4.6-4.6C0.1,512.7,0.1,344.8,0.1,177
		c19.3-5.9,38.5-11.8,57.9-17.2c35.8-9.9,71.9-18.5,108.3-25.7c38.2-7.5,76.6-13.6,115.4-17.4c22.2-2.2,44.4-4.2,66.7-4.6
		c22.1-0.4,44.3-0.6,66.4,0.7c24.3,1.5,48.4,4.1,72.3,8.8c30.3,5.9,59.6,15.3,89.4,23.2c87.9,23.3,176.3,43.6,266.8,54.5
		c30.2,3.6,60.6,6.5,91,7.4c27.1,0.8,54.3,1.2,81.4-0.6c24.6-1.6,49-4,73.4-8c54.6-8.9,107-24.7,156.1-50.6
		c27.3-14.4,54.9-28.1,83-40.6c75.2-33.5,152.8-60,232.9-78.9c56.1-13.3,112.8-22.8,170.4-26.3C1736.3,1.4,1741.4,2.2,1746.1,0z"/>
</g>
</svg>
