<?xml version="1.0" encoding="utf-8"?>
<!-- Generator: Adobe Illustrator 19.0.0, SVG Export Plug-In . SVG Version: 6.00 Build 0)  -->
<svg version="1.1" id="Livello_1" xmlns="http://www.w3.org/2000/svg" xmlns:xlink="http://www.w3.org/1999/xlink" x="0px" y="0px"
	 viewBox="0 0 384 180" style="enable-background:new 0 0 384 180;" xml:space="preserve">
<style type="text/css">
	.st0{fill:#FFFFFF;}
</style>
<g>
	<path class="st0" d="M384,27.8c0,41.8,0,83.5,0,125.3c-0.8,0.1-0.8,0.8-1,1.4c-6,17.7-17.2,25.6-35.9,25.6c-43.2,0-86.4,0-129.7,0
		c-61,0-121.9,0-182.9,0c-16,0-28.6-9.3-33.3-24.5c-0.3-0.9-0.1-2.1-1.3-2.5c0-42,0-84,0-126c0.6-0.1,0.7-0.5,0.9-1
		C7.5,7.4,18,0,37.6,0C112.8,0,188,0,263.2,0c28.9,0,57.7,0,86.6,0c16,0,28.7,9.8,33.2,25.2C383.2,26.1,382.7,27.4,384,27.8z
		 M192,112.5c-35.5,0-71,0-106.5,0c-9.7,0-19.5-0.1-29.2,0c-5.9,0.1-10.6,4.4-11.2,10c-0.6,5.6,3.2,10.9,8.9,12.1
		c1.6,0.3,3.2,0.3,4.8,0.3c88.8,0,177.7,0,266.5,0c1.1,0,2.3,0.1,3.4,0c7.8-0.7,12.6-9,9.2-16c-2.4-4.8-6.5-6.5-11.7-6.5
		C281.4,112.5,236.7,112.5,192,112.5z M294,78.6c-0.1-6.1-5.2-11.1-11.3-11.1c-6.1,0-11.2,5.1-11.2,11.2c0,6.2,5.3,11.4,11.5,11.3
		C289.1,89.9,294.1,84.7,294,78.6z M327.7,67.5c-6.1,0-11.2,5.1-11.2,11.2c0,6.1,5,11.2,11.1,11.3c6.2,0.1,11.5-5.1,11.4-11.4
		C338.9,72.6,333.8,67.5,327.7,67.5z"/>
</g>
</svg>
