<?xml version="1.0" encoding="utf-8"?>
<!-- Generator: Adobe Illustrator 19.0.0, SVG Export Plug-In . SVG Version: 6.00 Build 0)  -->
<svg version="1.1" id="Livello_1" xmlns="http://www.w3.org/2000/svg" xmlns:xlink="http://www.w3.org/1999/xlink" x="0px" y="0px"
	 viewBox="0 0 384 341.9" style="enable-background:new 0 0 384 341.9;" xml:space="preserve">
<style type="text/css">
	.st0{fill:#181C51;}
</style>
<g>
	<path class="st0" d="M0,98.3c1.5,0.1,3,0.2,4.5,0.2c93.2,0,186.4,0,279.6-0.1c3.7,0,4.7,1,4.4,4.6c-0.3,4.5-0.2,9,0,13.5
		c0.1,2.4-0.7,3-3,2.9c-5.6-0.2-11.2-0.1-16.7,1.7c-22.9,7.6-31.4,35.5-16.5,54.7c1.5,1.9,1.6,2.9,0,4.8c-9,11.5-9.9,26.5-2.6,39.3
		c0.7,1.2,1.9,2.1,0.1,3.7c-10.5,9.4-13.7,21.2-11.3,34.9c3.8,21.8,7.4,43.5,11,65.3c1.1,6.4,3.5,12.2,7,18.2c-1.6,0-2.9,0-4.2,0
		c-74.7,0-149.4,0-224.2,0c-14.3,0-22.6-5.8-27.4-19.2c-0.2-0.5-0.3-1-0.8-1.1C0,247.3,0,172.8,0,98.3z M228.5,218.5
		c0.1-46.1-37.5-84.1-83.6-84.3c-47-0.2-84.9,37.2-85,83.9c-0.1,46.6,37.3,84.3,84,84.6C190.3,303,228.4,265.1,228.5,218.5z"/>
	<path class="st0" d="M0,20.3c1.3-0.5,1-1.9,1.4-2.9C5.2,6.9,14.5,0,25.6,0c79,0,158,0,237,0c13.6,0,24.9,9.9,25.5,23.4
		c0.7,16.7,0.3,33.5,0.4,50.2c0,1.9-0.7,2.5-2.4,2.3c-0.5-0.1-1,0-1.5,0c-93.7,0-187.5,0-281.2,0c-1.1,0-2.2-0.1-3.4-0.2
		C0,57.3,0,38.8,0,20.3z M219.2,30.7c-6.1,0-12.2,0-18.3,0c-6.7,0.1-11.6,4.8-11.8,11c-0.1,6.1,4.9,11.4,11.4,11.4
		c12.5,0.1,25,0.2,37.4,0c6.6-0.1,11.3-5.3,11.1-11.6c-0.2-6.2-5-10.7-11.5-10.8C231.5,30.6,225.4,30.7,219.2,30.7z M67.6,41.9
		c0-6.2-4.9-11.1-11.1-11.1c-6.3,0-11.5,5.1-11.3,11.4c0.1,6,5.4,11.2,11.4,11.1C62.6,53.1,67.6,48,67.6,41.9z M112.6,41.8
		c0-6.2-4.9-11.1-11.1-11.1c-6.3,0-11.5,5.2-11.3,11.4c0.1,6,5.5,11.1,11.4,11C107.6,53.1,112.6,47.9,112.6,41.8z"/>
	<path class="st0" d="M384,255c-2.2,4.1-2.1,8.8-2.8,13.3c-3,17-5.6,34-8.5,51c-2.3,13.3-12.7,22.4-26.4,22.5
		c-16.1,0.2-32.2,0.2-48.4,0c-14-0.2-24.1-9.5-26.4-23.4c-3.6-21.7-7.2-43.3-10.9-65c-1.6-9.3,4.2-16.4,13.6-16.4
		c31.9,0,63.7,0,95.6-0.1c7.2,0,11.3,3.8,14.2,9.8C384,249.5,384,252.3,384,255z"/>
	<path class="st0" d="M321.9,214.5c-14,0-28,0.1-42,0c-6.4,0-11.3-4.3-12.3-10.4c-1-6.2,2.3-11.8,8.2-13.9c1.9-0.7,3.9-0.6,5.9-0.6
		c27,0,53.9,0.2,80.9-0.1c9.1-0.1,14.2,6.2,14.2,12.5c0,7.5-5.6,12.5-14.1,12.5C349.1,214.5,335.5,214.5,321.9,214.5z"/>
	<path class="st0" d="M322.1,141.7c13.7,0,27.5,0,41.2,0c7.9,0,13.4,5.2,13.5,12.4c0,7.3-5.5,12.5-13.4,12.5c-27.6,0-55.2,0-82.8,0
		c-7.8,0-13.4-5.4-13.3-12.6c0.1-7.2,5.7-12.3,13.6-12.3C294.7,141.7,308.4,141.7,322.1,141.7z"/>
	<path class="st0" d="M82.5,218.4c0-34.1,27.8-61.7,62.2-61.6c33.8,0,61.5,28.1,61.4,62.1c-0.1,33.9-27.9,61.5-62,61.5
		C110.3,280.4,82.5,252.4,82.5,218.4z"/>
</g>
</svg>
